<?xml version="1.0" encoding="utf-8"?>
<!-- Generator: Adobe Illustrator 21.0.2, SVG Export Plug-In . SVG Version: 6.00 Build 0)  -->
<svg version="1.1" id="Layer_1" xmlns="http://www.w3.org/2000/svg" xmlns:xlink="http://www.w3.org/1999/xlink" x="0px" y="0px"
	 viewBox="0 0 294.8 315.2" style="enable-background:new 0 0 294.8 315.2;" xml:space="preserve">
<style type="text/css">
	.st0{fill:#FFFFFF;}
</style>
<path class="st0" d="M147.4,15C69.6,15,6.5,78.1,6.5,155.9c0,62.3,40.4,115.1,96.4,133.7c7,1.3,9.6-3.1,9.6-6.8
	c0-3.4-0.1-14.5-0.2-26.2C73.1,265.2,64.8,240,64.8,240c-6.4-16.3-15.6-20.6-15.6-20.6c-12.8-8.7,1-8.6,1-8.6
	c14.1,1,21.6,14.5,21.6,14.5c12.6,21.5,33,15.3,41,11.7c1.3-9.1,4.9-15.3,8.9-18.8c-31.3-3.6-64.2-15.7-64.2-69.7
	c0-15.4,5.5-28,14.5-37.8c-1.4-3.6-6.3-17.9,1.4-37.3c0,0,11.8-3.8,38.8,14.5c11.2-3.1,23.3-4.7,35.3-4.7c12,0.1,24,1.6,35.3,4.8
	c26.9-18.3,38.7-14.5,38.7-14.5c7.7,19.4,2.9,33.7,1.4,37.3c9,9.9,14.5,22.4,14.5,37.8c0,54.1-33,66.1-64.4,69.6
	c5.1,4.4,9.6,12.9,9.6,26.1c0,18.8-0.2,34-0.2,38.7c0,3.8,2.6,8.1,9.7,6.8c56-18.7,96.3-71.5,96.3-133.7
	C288.3,78.1,225.2,15,147.4,15z"/>
</svg>
