<?xml version="1.0" encoding="utf-8"?>
<!-- Generator: Adobe Illustrator 21.0.2, SVG Export Plug-In . SVG Version: 6.00 Build 0)  -->
<svg version="1.1" id="Capa_1" xmlns="http://www.w3.org/2000/svg" xmlns:xlink="http://www.w3.org/1999/xlink" x="0px" y="0px"
	 viewBox="0 0 96.1 96.1" style="enable-background:new 0 0 96.1 96.1;" xml:space="preserve">
<style type="text/css">
	.st0{fill:#008DFF;}
</style>
<g>
	<path class="st0" d="M71.1,2H59c-13.5,0-22.3,9-22.3,22.9v10.5H24.6c-1.1,0-1.9,0.9-1.9,1.9v15.3c0,1.1,0.9,1.9,1.9,1.9h12.1V93
		c0,1.1,0.9,1.9,1.9,1.9h15.8c1.1,0,1.9-0.9,1.9-1.9V54.4h14.2c1.1,0,1.9-0.9,1.9-1.9V37.2c0-0.5-0.2-1-0.6-1.4s-0.9-0.6-1.4-0.6
		H56.3v-8.9c0-4.3,1.1-6.5,6.6-6.5H71c1.1,0,1.9-0.9,1.9-1.9v-14C72.9,2.8,72.2,2,71.1,2z"/>
</g>
</svg>
