<?xml version="1.0" encoding="utf-8"?>
<!-- Generator: Adobe Illustrator 21.0.2, SVG Export Plug-In . SVG Version: 6.00 Build 0)  -->
<svg version="1.1" id="Capa_1" xmlns="http://www.w3.org/2000/svg" xmlns:xlink="http://www.w3.org/1999/xlink" x="0px" y="0px"
	 viewBox="0 0 96.9 96.9" style="enable-background:new 0 0 96.9 96.9;" xml:space="preserve">
<style type="text/css">
	.st0{fill:#050505;}
</style>
<g>
	<path class="st0" d="M95.2,25.5c-1.2-5.2-5.4-9-10.5-9.5c-12-1.3-24.2-1.3-36.3-1.3s-24.3,0-36.3,1.3C7,16.6,2.8,20.4,1.6,25.5
		C0,32.9,0,40.9,0,48.4S0,64,1.7,71.3c1.2,5.2,5.4,9,10.5,9.5c12,1.3,24.2,1.3,36.3,1.3s24.3,0,36.3-1.3c5.1-0.6,9.3-4.4,10.5-9.5
		C97,64,97,56,97,48.4C96.9,40.9,96.9,32.9,95.2,25.5z M35.9,63.5c0-10.7,0-21.3,0-32c10.3,5.4,20.5,10.7,30.8,16.1
		C56.4,52.8,46.2,58.1,35.9,63.5z"/>
</g>
</svg>
