<?xml version="1.0" encoding="utf-8"?>
<!-- Generator: Adobe Illustrator 21.0.2, SVG Export Plug-In . SVG Version: 6.00 Build 0)  -->
<svg version="1.1" id="Layer_1" xmlns="http://www.w3.org/2000/svg" xmlns:xlink="http://www.w3.org/1999/xlink" x="0px" y="0px"
	 viewBox="0 0 86 27.6" style="enable-background:new 0 0 86 27.6;" xml:space="preserve">
<style type="text/css">
	.st0{fill:#767676;}
	.st1{fill:#767676;stroke:#000000;stroke-width:0.1;stroke-miterlimit:10;}
	.st2{enable-background:new    ;}
	.st3{font-family:'PTSans-Bold';}
	.st4{font-size:8px;}
	.st5{font-size:9px;}
</style>
<g>
	<path class="st0" d="M2.3,13l0.2,0.2c0.4,0.4,1,0.4,1.4,0L14.5,2.6c0.4-0.4,0.4-1,0-1.4L14.3,1c-0.4-0.4-1-0.4-1.4,0L2.3,11.6
		C2,12,2,12.6,2.3,13z"/>
	<path class="st0" d="M24.5,13l0.2-0.2c0.4-0.4,0.4-1,0-1.4L14.3,1c-0.4-0.4-1-0.4-1.4,0l-0.2,0.2c-0.4,0.4-0.4,1,0,1.4L23.1,13
		C23.5,13.4,24.1,13.4,24.5,13z"/>
	<path class="st0" d="M16.7,26.3l0.2-0.2c0.4-0.4,0.4-1,0-1.4l-13-13c-0.4-0.4-1-0.4-1.4,0l-0.2,0.2c-0.4,0.4-0.4,1,0,1.4l13,13
		C15.7,26.7,16.3,26.7,16.7,26.3z"/>
	<path class="st0" d="M24.8,12.4v-0.3c0-0.5-0.4-1-1-1H5c-0.5,0-1,0.4-1,1v0.3c0,0.5,0.4,1,1,1h18.9C24.4,13.4,24.8,13,24.8,12.4z"
		/>
	<g>
		<circle class="st0" cx="13.8" cy="12.5" r="3.2"/>
		<g>
			<path class="st1" d="M17,12.4c0-0.3-0.6-0.5-1.4-0.7c-0.2,0.2-0.4,0.5-0.6,0.8c0.2,0.2,0.3,0.4,0.5,0.6C16.3,13,17,12.7,17,12.4z
				"/>
			<path class="st1" d="M12.1,11.8c-0.9,0.1-1.5,0.4-1.5,0.7s0.6,0.6,1.6,0.7c0.1-0.2,0.3-0.4,0.5-0.6C12.5,12.3,12.3,12,12.1,11.8z
				"/>
			<path class="st1" d="M13.8,13.6c1,0.9,2,1.4,2.2,1.1c0.2-0.2-0.1-0.9-0.7-1.6c-0.3,0.1-0.7,0.1-1.1,0.1
				C14.1,13.4,14,13.5,13.8,13.6z"/>
			<path class="st1" d="M13.8,11.4c-1-0.9-2-1.4-2.2-1.1c-0.2,0.2,0,0.8,0.5,1.5c0.4-0.1,0.9-0.1,1.5-0.1
				C13.7,11.6,13.8,11.5,13.8,11.4z"/>
			<path class="st1" d="M13.3,12c0.1-0.1,0.2-0.2,0.4-0.3c-0.5,0-1.1,0.1-1.5,0.1c0.2,0.2,0.4,0.5,0.6,0.8
				C12.9,12.4,13.1,12.2,13.3,12z"/>
			<path class="st1" d="M14.4,13.1l-0.1,0.1c0.4,0,0.8,0,1.1-0.1c-0.1-0.2-0.3-0.4-0.5-0.6C14.8,12.7,14.6,12.9,14.4,13.1z"/>
			<path class="st1" d="M15.5,11.8c0.5-0.7,0.7-1.3,0.5-1.5c-0.3-0.3-1.2,0.2-2.2,1.1c0.1,0.1,0.1,0.1,0.2,0.2
				C14.6,11.7,15.1,11.7,15.5,11.8z"/>
			<path class="st1" d="M12.3,13.1c-0.6,0.8-0.9,1.4-0.7,1.7c0.3,0.3,1.2-0.2,2.3-1.2c-0.1-0.1-0.3-0.3-0.4-0.4
				C13,13.2,12.6,13.2,12.3,13.1z"/>
			<path class="st1" d="M13.3,13.1c-0.2-0.2-0.4-0.4-0.5-0.6c-0.2,0.2-0.3,0.4-0.5,0.6c0.3,0.1,0.7,0.1,1.1,0.1
				C13.4,13.2,13.3,13.1,13.3,13.1z"/>
			<path class="st1" d="M14.4,12c0.2,0.2,0.4,0.4,0.5,0.6c0.2-0.3,0.4-0.5,0.6-0.8c-0.4-0.1-0.9-0.1-1.5-0.1
				C14.2,11.8,14.3,11.9,14.4,12z"/>
			<path class="st1" d="M13.8,11.6c0.1,0,0.2,0,0.2,0c-0.1-0.1-0.1-0.1-0.2-0.2c-0.1,0.1-0.1,0.1-0.2,0.2
				C13.7,11.6,13.8,11.6,13.8,11.6z"/>
			<path class="st1" d="M13.8,13.2c-0.1,0-0.3,0-0.4,0c0.1,0.1,0.3,0.3,0.4,0.4c0.1-0.1,0.3-0.3,0.4-0.4
				C14.1,13.2,14,13.2,13.8,13.2z"/>
			<path class="st1" d="M14.1,11.6c-0.1,0-0.2,0-0.2,0c-0.1,0-0.1,0-0.2,0c-0.1,0.1-0.2,0.2-0.4,0.3c-0.2,0.2-0.4,0.4-0.5,0.5
				c0.2,0.2,0.3,0.4,0.5,0.6l0.1,0.1c0.1,0,0.3,0,0.4,0c0.2,0,0.3,0,0.5,0l0.1-0.1c0.2-0.2,0.4-0.4,0.5-0.6
				c-0.2-0.2-0.3-0.4-0.5-0.6C14.3,11.9,14.2,11.8,14.1,11.6z"/>
		</g>
	</g>
	<path class="st0" d="M15.1,26.1l0.2,0.2c0.4,0.4,1,0.4,1.4,0l2.6-2.6c0.4-0.4,0.4-1,0-1.4l-0.2-0.2c-0.4-0.4-1-0.4-1.4,0l-2.6,2.6
		C14.7,25.1,14.7,25.7,15.1,26.1z"/>
	<text transform="matrix(1 0 0 1 16.9849 19.9375)" class="st2"><tspan x="0" y="0" class="st0 st3 st4">     © </tspan><tspan x="18.8" y="0" class="st0 st3 st5">Webpage Inc.</tspan></text>
</g>
</svg>
