<?xml version="1.0" encoding="utf-8"?>
<!-- Generator: Adobe Illustrator 21.0.2, SVG Export Plug-In . SVG Version: 6.00 Build 0)  -->
<svg version="1.1" id="Layer_1" xmlns="http://www.w3.org/2000/svg" xmlns:xlink="http://www.w3.org/1999/xlink" x="0px" y="0px"
	 viewBox="0 0 14 7" style="enable-background:new 0 0 14 7;" xml:space="preserve">
<g>
	<g>
		<polygon points="7.1,5.8 1.8,0.5 1.1,1.2 6.4,6.5 		"/>
	</g>
	<g>
		<path d="M7.1,5.8C6.9,5.5,6.5,5.5,6.3,5.7S6.1,6.2,6.4,6.5c0.3,0.3,0.7,0.4,0.9,0.2S7.5,6.2,7.1,5.8L7.1,5.8z"/>
	</g>
	<g>
		<path d="M1.8,0.5C1.6,0.2,1.2,0.1,1,0.4S0.8,0.9,1.1,1.2S1.8,1.6,2,1.4S2.2,0.9,1.8,0.5L1.8,0.5z"/>
	</g>
</g>
<g>
	<g>
		<polygon points="12.4,0.6 7.1,5.9 7.8,6.6 13.1,1.3 		"/>
	</g>
	<g>
		<path d="M12.4,0.6c-0.3,0.3-0.4,0.6-0.1,0.8c0.2,0.2,0.6,0.1,0.8-0.1s0.4-0.7,0.2-0.9C13.1,0.1,12.7,0.2,12.4,0.6L12.4,0.6z"/>
	</g>
	<g>
		<path d="M7.1,5.9C6.8,6.1,6.7,6.5,6.9,6.7c0.2,0.2,0.6,0.1,0.8-0.1C8.1,6.3,8.2,5.9,8,5.7C7.8,5.4,7.4,5.5,7.1,5.9L7.1,5.9z"/>
	</g>
</g>
</svg>
