<?xml version="1.0" encoding="utf-8"?>
<svg version="1.1" id="Layer_1" xmlns="http://www.w3.org/2000/svg" xmlns:xlink="http://www.w3.org/1999/xlink" x="0px" y="0px"
	 viewBox="0 0 84 82.5" style="enable-background:new 0 0 84 82.5;" xml:space="preserve">
<style type="text/css">
	.st0{fill:#84DBFF;}
	.st1{fill:#FFFFFF;}
	.st2{fill:#324A5E;}
	.st3{fill:#FF7058;}
	.st4{fill:#ACB3BA;}
</style>
<circle class="st0" cx="42.5" cy="41.5" r="38.8"/>
<path class="st1" d="M16,29.7v30.8c0,0.2,0.2,0.4,0.4,0.4h52.2c0.2,0,0.4-0.2,0.4-0.4V29.7H16z"/>
<path class="st2" d="M69,30v-5.3c0-1.5-1.2-2.7-2.7-2.7H18.7c-1.5,0-2.7,1.2-2.7,2.7V30H69z"/>
<path class="st1" d="M47.4,27.9h-26c-1.1,0-1.9-0.9-1.9-1.9l0,0c0-1.1,0.9-1.9,1.9-1.9h26c1.1,0,1.9,0.9,1.9,1.9l0,0
	C49.4,27.1,48.5,27.9,47.4,27.9z"/>
<circle class="st3" cx="63.5" cy="26.1" r="2"/>
<circle class="st4" cx="57.9" cy="26.1" r="2"/>
<g>
	<path class="st2" d="M21.6,26.7h-0.4l-0.5-1.3h0.4l0.3,0.8l0.3-0.8H22l0.3,0.8l0.3-0.8h0.4l-0.5,1.3h-0.4L21.8,26L21.6,26.7z"/>
	<path class="st2" d="M23.8,26.7h-0.4L23,25.4h0.4l0.3,0.8l0.3-0.8h0.4l0.3,0.8l0.3-0.8h0.4l-0.5,1.3h-0.4L24.1,26L23.8,26.7z"/>
	<path class="st2" d="M26.1,26.7h-0.4l-0.5-1.3h0.4l0.3,0.8l0.3-0.8h0.4l0.3,0.8l0.3-0.8h0.4l-0.5,1.3h-0.4L26.3,26L26.1,26.7z"/>
</g>
<polygon class="st3" points="64.6,32.6 53.5,34.6 56.9,38 42.8,52.2 34.3,43.7 26.2,51.8 20.6,46.2 16,50.9 16,55.1 20.6,50.5
	26.2,56.1 34.3,48 42.8,56.5 59,40.2 62.6,43.8 "/>
</svg>
