<?xml version="1.0" encoding="utf-8"?>
<svg version="1.1" id="Capa_1" xmlns="http://www.w3.org/2000/svg" xmlns:xlink="http://www.w3.org/1999/xlink" x="0px" y="0px"
	 viewBox="0 0 34.8 33.8" style="enable-background:new 0 0 34.8 33.8;" xml:space="preserve">
<style type="text/css">
	.st0{fill:#26B99A;}
	.st1{fill:#38454F;}
	.st2{fill:#AFB6BB;}
	.st3{fill:#839594;}
	.st4{fill:#EDEADA;}
	.st5{fill:#CEC9AE;}
</style>
<polygon class="st0" points="23.9,5.4 11.6,5.4 4.5,5.4 4.5,11.5 31,11.5 31,5.4 "/>
<circle class="st1" cx="13.5" cy="7.3" r="0.9"/>
<circle class="st1" cx="16.3" cy="7.3" r="0.9"/>
<circle class="st1" cx="19.2" cy="7.3" r="0.9"/>
<circle class="st1" cx="22" cy="7.3" r="0.9"/>
<path class="st2" d="M22,3c-0.5,0-1,0.2-1.4,0.5c0.3,0.2,0.5,0.4,0.6,0.7C21.4,4,21.7,3.9,22,3.9c0.8,0,1.4,0.6,1.4,1.4
	S22.8,6.8,22,6.8c-0.3,0-0.5,0.2-0.5,0.5s0.2,0.5,0.5,0.5c1.3,0,2.4-1.1,2.4-2.4S23.3,3,22,3z"/>
<path class="st3" d="M20,4.2c-0.2,0.3-0.3,0.7-0.3,1.2h0.9C20.6,4.9,20.3,4.5,20,4.2z"/>
<path class="st3" d="M17.1,4.2c-0.2,0.3-0.3,0.7-0.3,1.2h0.9C17.8,4.9,17.5,4.5,17.1,4.2z"/>
<path class="st2" d="M21.2,4.2c-0.2-0.3-0.4-0.5-0.6-0.7C20.2,3.2,19.7,3,19.2,3c-0.5,0-1,0.2-1.4,0.5c0.3,0.2,0.5,0.4,0.6,0.7
	c0.2-0.2,0.5-0.2,0.8-0.2c0.3,0,0.6,0.1,0.8,0.2c0.4,0.3,0.6,0.7,0.6,1.2c0,0.8-0.6,1.4-1.4,1.4c-0.3,0-0.5,0.2-0.5,0.5
	s0.2,0.5,0.5,0.5c1.3,0,2.4-1.1,2.4-2.4C21.5,4.9,21.4,4.5,21.2,4.2z"/>
<path class="st3" d="M14.3,4.2C14.1,4.5,14,4.9,14,5.4h0.9C14.9,4.9,14.7,4.5,14.3,4.2z"/>
<path class="st2" d="M18.4,4.2c-0.2-0.3-0.4-0.5-0.6-0.7C17.4,3.2,16.9,3,16.3,3c-0.5,0-1,0.2-1.4,0.5c0.3,0.2,0.5,0.4,0.6,0.7
	C15.8,4,16,3.9,16.3,3.9c0.3,0,0.6,0.1,0.8,0.2c0.4,0.3,0.6,0.7,0.6,1.2c0,0.8-0.6,1.4-1.4,1.4c-0.3,0-0.5,0.2-0.5,0.5
	s0.2,0.5,0.5,0.5c1.3,0,2.4-1.1,2.4-2.4C18.7,4.9,18.6,4.5,18.4,4.2z"/>
<path class="st2" d="M15.5,4.2c-0.2-0.3-0.4-0.5-0.6-0.7C14.5,3.2,14,3,13.5,3c-1.3,0-2.4,1.1-2.4,2.4h0.9c0-0.8,0.6-1.4,1.4-1.4
	c0.3,0,0.6,0.1,0.8,0.2c0.4,0.3,0.6,0.7,0.6,1.2c0,0.8-0.6,1.4-1.4,1.4C13.2,6.8,13,7,13,7.3s0.2,0.5,0.5,0.5c1.3,0,2.4-1.1,2.4-2.4
	C15.9,4.9,15.7,4.5,15.5,4.2z"/>
<rect x="4.5" y="11.5" class="st4" width="26.6" height="19"/>
<circle class="st5" cx="10.2" cy="16.8" r="2.4"/>
<circle class="st5" cx="17.8" cy="16.8" r="2.4"/>
<circle class="st5" cx="25.3" cy="16.8" r="2.4"/>
<circle class="st5" cx="10.2" cy="24.3" r="2.4"/>
<circle class="st5" cx="17.8" cy="24.3" r="2.4"/>
<circle class="st0" cx="25.3" cy="24.3" r="2.4"/>
</svg>
