<?xml version="1.0" encoding="utf-8"?>
<!-- Generator: Adobe Illustrator 21.0.2, SVG Export Plug-In . SVG Version: 6.00 Build 0)  -->
<svg version="1.1" id="Layer_1" xmlns="http://www.w3.org/2000/svg" xmlns:xlink="http://www.w3.org/1999/xlink" x="0px" y="0px"
	 viewBox="0 0 19.5 19.2" style="enable-background:new 0 0 19.5 19.2;" xml:space="preserve">
<g>
	<path d="M9.5,9.4L3,15.9c-0.2,0.2-0.2,0.5,0,0.6c0.1,0.1,0.2,0.1,0.3,0.1c0.1,0,0.3,0,0.3-0.1l6.5-6.5l6.5,6.5
		c0.1,0.1,0.2,0.1,0.3,0.1c0.1,0,0.3,0,0.3-0.1c0.2-0.2,0.2-0.5,0-0.6l-6.5-6.5l6.5-6.5c0.2-0.2,0.2-0.5,0-0.6
		c-0.2-0.2-0.5-0.2-0.6,0l-6.5,6.5L3.7,2.2C3.5,2.1,3.2,2.1,3,2.2C2.8,2.4,2.8,2.7,3,2.9L9.5,9.4z"/>
</g>
</svg>
