<?xml version="1.0" encoding="utf-8"?>
<!-- Generator: Adobe Illustrator 21.0.2, SVG Export Plug-In . SVG Version: 6.00 Build 0)  -->
<svg version="1.1" id="Capa_1" xmlns="http://www.w3.org/2000/svg" xmlns:xlink="http://www.w3.org/1999/xlink" x="0px" y="0px"
	 viewBox="0 0 34.8 33.8" style="enable-background:new 0 0 34.8 33.8;" xml:space="preserve">
<style type="text/css">
	.st0{fill:#8DD9FF;}
	.st1{fill:#FFFFFF;}
	.st2{fill:#B2B9C9;}
	.st3{fill:#9FC3DD;}
	.st4{fill:#B39191;}
	.st5{fill:#7FAAB8;}
	.st6{fill:#EEE1C2;}
	.st7{fill:#43AB5F;}
	.st8{fill:#71BE63;}
	.st9{fill:#94D75B;}
	.st10{fill:#B0EB81;}
	.st11{fill:#674447;}
	.st12{fill:#8C665B;}
	.st13{fill:#FDEFDB;}
	.st14{fill:#A29B91;}
	.st15{fill:#88B7C6;}
	.st16{fill:#E9B668;}
	.st17{fill:#9E8282;}
</style>
<g>
	<g>
		<circle class="st0" cx="20.3" cy="17.1" r="12.9"/>
	</g>
	<g>
		<rect x="10.3" y="14.7" class="st1" width="1.1" height="2.3"/>
	</g>
	<g>
		<rect x="30.4" y="15.5" class="st2" width="1.4" height="1.9"/>
	</g>
	<g>
		<path class="st3" d="M30.8,19.1h2.3c0.1-0.7,0.1-1.3,0.1-2c0-0.2,0-0.4,0-0.6h-2.4V19.1z"/>
	</g>
	<g>
		<path class="st4" d="M7.5,17c0,0.1,0,0.1,0,0.1c0,0.7,0.1,1.4,0.1,2h2.3v-2.2L7.5,17L7.5,17z"/>
	</g>
	<g>
		<polyline class="st2" points="11.1,19.1 13.5,19.1 13.1,14.7 11.1,15.5 11.1,19.1 		"/>
	</g>
	<g>
		<rect x="23" y="15.1" class="st5" width="2.3" height="4"/>
	</g>
	<g>
		<rect x="13.1" y="13.1" class="st6" width="1.6" height="6"/>
	</g>
	<g>
		<rect x="21.9" y="13.9" class="st6" width="1.6" height="5.2"/>
	</g>
	<g>
		<rect x="18.3" y="12.9" class="st3" width="1.6" height="6.2"/>
	</g>
	<g>
		<rect x="25.9" y="15.5" class="st2" width="2.3" height="3.6"/>
	</g>
	<g>
		<rect x="28.5" y="16.1" class="st4" width="2.3" height="3"/>
	</g>
	<g>
		<path class="st7" d="M7.6,19.1c1,6.2,6.3,10.9,12.7,10.9S32.1,25.3,33,19.1H7.6z"/>
	</g>
	<g>
		<path class="st8" d="M31.2,24c0.9-1.4,1.5-3.1,1.8-4.8H7.6C7.9,21,8.5,22.6,9.4,24H31.2z"/>
	</g>
	<g>
		<path class="st9" d="M8.3,21.6h24.1c0.3-0.8,0.5-1.6,0.6-2.4H7.6C7.8,20,8,20.8,8.3,21.6z"/>
	</g>
	<g>
		<path class="st10" d="M7.8,19.9h25.1c0.1-0.3,0.1-0.5,0.1-0.8H7.6C7.7,19.4,7.7,19.7,7.8,19.9z"/>
	</g>
	<g>
		<path class="st11" d="M26.3,28.5c-2.2-3.5-5.9-9.4-5.9-9.4l-6,9.4c1.8,0.9,3.8,1.5,5.9,1.5C22.4,30,24.5,29.5,26.3,28.5z"/>
	</g>
	<g>
		<path class="st12" d="M21.9,21.6c-0.9-1.4-1.5-2.4-1.5-2.4l-1.5,2.4H21.9z"/>
	</g>
	<g>
		<polyline class="st13" points="21.9,19.1 21.9,11.7 19.9,10.5 19.9,19.1 		"/>
	</g>
	<g>
		<polygon class="st1" points="16.3,9.1 16.3,19.1 18.3,19.1 18.3,10.1 18.3,7.7 		"/>
	</g>
	<g>
		<rect x="24.8" y="10.8" class="st1" width="1.6" height="8.3"/>
	</g>
	<g>
		<polyline class="st14" points="14.7,19.1 14.7,17.1 12.3,17.1 12.3,19.1 		"/>
	</g>
	<g>
		<polyline class="st3" points="17,19.1 17,14.3 14.7,14.3 14.7,19.1 		"/>
	</g>
	<g>
		<polyline class="st15" points="23.6,19.1 23.6,17.5 21.1,17.9 21.1,19.1 		"/>
	</g>
	<g>
		<rect x="27.6" y="15.1" class="st13" width="1.6" height="4"/>
	</g>
	<g>
		<path class="st1" d="M20.3,19.1l5.3,9.7c0.2-0.1,0.4-0.2,0.6-0.3L20.3,19.1z"/>
	</g>
	<g>
		<path class="st1" d="M20.3,19.1l-5.9,9.4c0.2,0.1,0.4,0.2,0.6,0.3L20.3,19.1z"/>
	</g>
	<g>
		<path class="st16" d="M21.5,29.9l-1.1-10.8l0.4,10.8C21,30,21.2,30,21.5,29.9z"/>
	</g>
	<g>
		<path class="st16" d="M20.3,19.1l-1.1,10.8c0.2,0,0.5,0,0.7,0L20.3,19.1z"/>
	</g>
	<g>
		<rect x="9.5" y="16.3" class="st3" width="1.6" height="2.8"/>
	</g>
	<g>
		<rect x="24" y="18" class="st14" width="2.7" height="1.1"/>
	</g>
	<g>
		<rect x="18.3" y="15.2" class="st4" width="0.9" height="3.9"/>
	</g>
	<g>
		<rect x="13.5" y="18.3" class="st17" width="2.3" height="0.8"/>
	</g>
	<g>
		<rect x="11.6" y="18.3" class="st6" width="1.1" height="0.8"/>
	</g>
	<g>
		<rect x="18.8" y="18.3" class="st6" width="0.9" height="0.8"/>
	</g>
	<g>
		<rect x="26.4" y="18.3" class="st6" width="1.4" height="0.8"/>
	</g>
	<g>
		<rect x="21.9" y="18.6" class="st17" width="1.1" height="0.6"/>
	</g>
	<g>
		<rect x="27.3" y="17.8" class="st17" width="1.1" height="1.3"/>
	</g>
	<g>
		<rect x="30.2" y="18.2" class="st17" width="2.3" height="1"/>
	</g>
	<g>
		<rect x="8.9" y="17.8" class="st17" width="1.1" height="1.3"/>
	</g>
	<g>
		<rect x="16.5" y="17.8" class="st2" width="0.9" height="1.3"/>
	</g>
	<g>
		<rect x="24.9" y="18.6" class="st2" width="0.9" height="0.6"/>
	</g>
	<g>
		<rect x="8.6" y="18.6" class="st2" width="0.9" height="0.6"/>
	</g>
	<g>
		<rect x="12.4" y="18.7" class="st2" width="1.6" height="0.4"/>
	</g>
</g>
</svg>
