<?xml version="1.0" encoding="utf-8"?>
<svg version="1.1" id="Layer_1" xmlns="http://www.w3.org/2000/svg" xmlns:xlink="http://www.w3.org/1999/xlink" x="0px" y="0px"
	 viewBox="0 0 109 97" style="enable-background:new 0 0 109 97;" xml:space="preserve">
<style type="text/css">
	.st0{fill:#05365B;}
	.st1{fill:#008C61;}
	.st2{fill:#E29D81;}
	.st3{fill:#D3856A;}
	.st4{fill:#FFFFFF;}
	.st5{fill:#DFE2E5;}
	.st6{fill:#006D49;}
	.st7{fill:#F9BDA0;}
	.st8{fill:#FFE4C7;}
	.st9{fill:#00263D;}
	.st10{fill:#FFC114;}
	.st11{fill:#E8AB92;}
</style>
<polygon class="st0" points="10.8,11.6 10.8,12.4 10.8,55.7 17.4,59.8 37.3,28.5 "/>
<polygon class="st1" points="103.1,12.4 103.1,11.6 76.6,28.5 96.5,59.8 103.1,55.7 "/>
<g>
	<path class="st2" d="M85.9,66.2c5.7-3.6,7.1-11.3,3.3-17.3l-4.8-7.4c-3.9-5.9-11.5-7.9-17.1-4.3l-17,10.7
		c-5.7,3.6-7.1,11.3-3.3,17.3l4.8,7.4c3.9,5.9,11.5,7.9,17.1,4.3L85.9,66.2z"/>
	<path class="st2" d="M83.9,67.6c2.1-1.3,2.7-4.2,1.3-6.2l0,0C83.9,59.2,81,58.6,79,60L47.7,79.8c-2.1,1.3-2.7,4.2-1.3,6.2l0,0
		c1.3,2.1,4.2,2.7,6.2,1.3L83.9,67.6z"/>
</g>
<path class="st3" d="M47.3,65.2l4.8,7.4c3.9,5.9,11.5,7.9,17.1,4.3l17-10.7c5.7-3.6,7.1-11.3,3.3-17.3l-4.8-7.4"/>
<g>
	<path class="st2" d="M64.5,60.3c2.1-1.3,2.7-4.2,1.3-6.2l0,0c-1.3-2.1-4.2-2.7-6.2-1.3L28.4,72.6c-2.1,1.3-2.7,4.2-1.3,6.2l0,0
		c1.3,2.1,4.2,2.7,6.2,1.3L64.5,60.3z"/>
	<path class="st2" d="M71.1,66.2c2.1-1.3,2.7-4.2,1.3-6.2l0,0c-1.3-2.1-4.2-2.7-6.2-1.3L34.9,78.6c-2.1,1.3-2.7,4.2-1.3,6.2l0,0
		c1.3,2.1,4.2,2.7,6.2,1.3L71.1,66.2z"/>
	<path class="st2" d="M64.4,50c2.1-1.3,2.7-4.2,1.3-6.2l0,0c-1.3-2.1-4.2-2.7-6.2-1.3L28.2,62.4c-2.1,1.3-2.7,4.2-1.3,6.2l0,0
		c1.3,2.1,4.2,2.7,6.2,1.3L64.4,50z"/>
	<path class="st2" d="M70.6,35.7c0,0-17.5,2.5-19,3c-1.3,0.4-5.5,10.6-0.7,11.7c4.9,1.2,12.6-5.1,12.6-5.1L70.6,35.7z"/>
</g>
<rect x="83.1" y="29.1" transform="matrix(0.8439 -0.5366 0.5366 0.8439 -10.8399 53.1258)" class="st4" width="5.5" height="32.1"/>
<polyline class="st5" points="79.6,30.2 74.9,33.2 92.2,60.3 "/>
<polyline class="st6" points="103.1,11.6 76.6,28.5 96.5,59.8 "/>
<path class="st7" d="M85.5,72.5l-2.8-1.8c1.6,0.1,3.4-0.6,4.3-2.1c1.3-2.1,0.7-4.9-1.3-6.2L64.8,49.1c1.5-3.1-1.5-9.8-2.5-10.3
	c-1.3-0.4-17.4-2.7-18.9-3c-5.1-1.5-10.9,0.7-14,5.7L24.7,49c-3.9,5.9-2.4,13.7,3.3,17.3l1.3,0.9c0.1,0.1,0.4,0.4,0.7,0.6l31.2,19.9
	c2.1,1.3,4.9,0.7,6.2-1.3c0.7-1.2,0.9-2.5,0.4-3.7l5.9,3.9c2.1,1.3,4.9,0.7,6.2-1.3c1-1.5,0.9-3.4,0-4.8l0.3,0.1
	c2.1,1.3,4.9,0.7,6.2-1.3C88.3,76.6,87.7,73.8,85.5,72.5z"/>
<g>
	<path class="st8" d="M62.7,85.9c-0.9-0.6-1.2-1.6-0.6-2.5l0.6-1c0.6-0.9,1.6-1.2,2.5-0.6l0,0c0.9,0.6,1.2,1.6,0.6,2.5l-0.6,1
		C64.8,86.2,63.6,86.5,62.7,85.9L62.7,85.9z"/>
	<path class="st8" d="M82.1,78.6c-0.9-0.6-1.2-1.6-0.6-2.5l0.6-1c0.6-0.9,1.6-1.2,2.5-0.6l0,0c0.9,0.6,1.2,1.6,0.6,2.5l-0.6,1
		C84.2,78.9,83,79.2,82.1,78.6L82.1,78.6z"/>
	<path class="st8" d="M75.5,84.5c-0.9-0.6-1.2-1.6-0.6-2.5l0.6-1c0.6-0.9,1.6-1.2,2.5-0.6l0,0c0.9,0.6,1.2,1.6,0.6,2.5l-0.6,1
		C77.5,84.8,76.4,85.1,75.5,84.5L75.5,84.5z"/>
	<path class="st8" d="M82.2,68.5c-0.9-0.6-1.2-1.6-0.6-2.5l0.6-1c0.6-0.9,1.6-1.2,2.5-0.6l0,0c0.9,0.6,1.2,1.6,0.6,2.5l-0.4,1
		C84.3,68.8,83.1,68.9,82.2,68.5L82.2,68.5z"/>
</g>
<rect x="11.9" y="42.5" transform="matrix(0.5365 -0.8439 0.8439 0.5365 -25.2102 44.6057)" class="st4" width="32.1" height="5.5"/>
<polyline class="st5" points="34.3,30.2 39,33.2 21.7,60.3 "/>
<polyline class="st9" points="10.8,11.6 37.3,28.5 17.4,59.8 "/>
<path class="st10" d="M21.3,40.2c-0.9,1.5-2.8,1.8-4.2,0.9c-1.5-0.9-1.8-2.8-0.9-4.2c0.9-1.5,2.8-1.8,4.2-0.9
	C21.7,36.9,22.1,38.9,21.3,40.2z"/>
<path class="st11" d="M85.7,62.2L64.8,49c1.5-3.1-1.5-9.8-2.5-10.3c-0.6-0.3-4.8-0.9-9.1-1.5l-4.8,14.9l39.1,12.5
	C87.3,63.7,86.7,62.8,85.7,62.2z"/>
<path class="st2" d="M65.9,39.8c1.3,2.2,1.9,8,0.1,9.1l-15,3.3c-1.8,1-4.2,0-5.5-2.1l0,0c-1.3-2.2-0.9-4.8,0.9-5.8L57.1,38
	c1.8-1,7.3-0.7,8.6,1.3L65.9,39.8z"/>
</svg>
