<?xml version="1.0" encoding="utf-8"?>
<!-- Generator: Adobe Illustrator 21.0.2, SVG Export Plug-In . SVG Version: 6.00 Build 0)  -->
<svg version="1.1" id="Layer_1" xmlns="http://www.w3.org/2000/svg" xmlns:xlink="http://www.w3.org/1999/xlink" x="0px" y="0px"
	 viewBox="0 0 140 80" style="enable-background:new 0 0 140 80;" xml:space="preserve">
<style type="text/css">
	.st0{fill:#262E3F;}
	.st1{fill:#3D8F86;}
	.st2{fill:#7A5D61;}
	.st3{fill:#BDCC64;}
	.st4{fill:#A8B24B;}
	.st5{fill:#37A590;}
	.st6{fill:#237C6B;}
	.st7{fill:#BF783D;}
	.st8{fill:#AF6025;}
	.st9{fill:#BB54C6;}
	.st10{fill:#A13EAF;}
	.st11{fill:#E55560;}
	.st12{fill:#D84456;}
	.st13{fill:#EFC75E;}
	.st14{fill:#D7B354;}
	.st15{fill:#BF9F4B;}
	.st16{fill:#CDCFCF;}
	.st17{fill:#AC8F43;}
	.st18{fill:#CCD0D2;}
	.st19{fill:#DCDEDF;}
	.st20{fill:#E4E7E7;}
	.st21{fill:#B7BBBD;}
	.st22{fill:#C6C7C8;}
	.st23{fill:#BA531D;}
	.st24{fill:#6B7270;}
	.st25{fill:#BAAEA0;}
	.st26{fill:#30E3CA;}
	.st27{fill:#AD9F8F;}
	.st28{fill:#11999E;}
	.st29{fill:#D5A69E;}
	.st30{fill:#9A6B63;}
	.st31{fill:#FFFFFF;}
	.st32{fill:#FFFFFF;stroke:#000000;stroke-width:0.1;stroke-miterlimit:10;}
	.st33{font-family:'PTSans-Bold';}
	.st34{font-size:1.3349px;}
	.st35{opacity:0.69;fill:#BAAEA0;enable-background:new    ;}
	.st36{fill:#BAB737;}
</style>
<rect class="st0" width="140" height="80"/>
<ellipse transform="matrix(0.9972 -7.499953e-02 7.499953e-02 0.9972 -1.7159 1.3038)" class="st1" cx="16.5" cy="23.5" rx="0.5" ry="0.5"/>
<ellipse transform="matrix(0.3555 -0.9347 0.9347 0.3555 4.027379e-02 26.5572)" class="st2" cx="19.3" cy="13.2" rx="0.3" ry="0.3"/>
<circle class="st3" cx="22.8" cy="24.6" r="9.7"/>
<ellipse transform="matrix(0.8866 -0.4626 0.4626 0.8866 -7.8972 15.7672)" class="st4" cx="28.2" cy="24" rx="0.9" ry="1.4"/>
<ellipse transform="matrix(0.2794 -0.9602 0.9602 0.2794 -4.4372 33.3171)" class="st4" cx="20" cy="19.6" rx="1.5" ry="2.3"/>
<ellipse transform="matrix(0.2794 -0.9602 0.9602 0.2794 3.3693 36.3479)" class="st3" cx="25.9" cy="15.9" rx="1.5" ry="2.9"/>
<ellipse transform="matrix(0.2794 -0.9602 0.9602 0.2794 4.0135 36.1729)" class="st4" cx="26.1" cy="15.4" rx="0.5" ry="2.1"/>
<ellipse transform="matrix(0.1391 -0.9903 0.9903 0.1391 1.1708 53.9766)" class="st3" cx="31.6" cy="26.3" rx="2.9" ry="1.5"/>
<ellipse transform="matrix(0.1391 -0.9903 0.9903 0.1391 1.6146 54.7373)" class="st4" cx="32.3" cy="26.4" rx="2" ry="0.5"/>
<path class="st4" d="M29.2,23.4c0.3,0.6,0.4,1.2,0.3,1.6c0.4-0.3,0.4-1.1,0-1.8c-0.4-0.6-1-1.1-1.4-1C28.5,22.4,28.9,22.8,29.2,23.4
	z"/>
<path class="st4" d="M21.3,17.9c0.9,0.5,1.5,1.3,1.6,2.1c0.3-0.9-0.2-2-1.2-2.7c-1-0.6-2.2-0.5-2.9,0.1
	C19.5,17.2,20.4,17.4,21.3,17.9z"/>
<path class="st4" d="M21.9,26.2c1.2,0.5,1.9,1.5,1.8,2.1s-1.3,0.8-2.4,0.4c-1.2-0.5-1.9-1.5-1.8-2.1S20.7,25.8,21.9,26.2z"/>
<path class="st4" d="M21.2,29.2c-1-0.4-1.8-1.1-2.1-1.7c0,0.7,0.8,1.6,2,2.1c1.1,0.5,2.1,0.4,2.6-0.2C23,29.7,22.1,29.6,21.2,29.2z"
	/>
<ellipse transform="matrix(0.5291 -0.8485 0.8485 0.5291 -18.5469 31.5674)" class="st3" cx="19.2" cy="32.5" rx="1.5" ry="2.9"/>
<ellipse transform="matrix(0.5291 -0.8485 0.8485 0.5291 -19.1542 31.4797)" class="st4" cx="18.8" cy="33" rx="0.5" ry="2"/>
<g>
	<ellipse transform="matrix(0.9291 -0.3699 0.3699 0.9291 -24.4948 7.0695)" class="st1" cx="6.2" cy="67.4" rx="0.5" ry="0.5"/>
	
		<ellipse transform="matrix(5.960637e-02 -0.9982 0.9982 5.960637e-02 -51.1847 79.9299)" class="st2" cx="16.8" cy="67.1" rx="0.3" ry="0.3"/>
	<ellipse transform="matrix(0.9542 -0.2991 0.2991 0.9542 -21.7463 5.5008)" class="st5" cx="7.1" cy="73.8" rx="9.7" ry="9.7"/>
	<ellipse transform="matrix(0.7076 -0.7066 0.7066 0.7076 -52.9846 29.5679)" class="st6" cx="9.2" cy="78.8" rx="1.4" ry="0.9"/>
	
		<ellipse transform="matrix(0.9998 -2.063627e-02 2.063627e-02 0.9998 -1.434 0.2418)" class="st6" cx="11" cy="69.6" rx="1.5" ry="2.3"/>
	
		<ellipse transform="matrix(0.9998 -2.063627e-02 2.063627e-02 0.9998 -1.5257 0.3501)" class="st5" cx="16.2" cy="74.1" rx="1.5" ry="2.9"/>
	
		<ellipse transform="matrix(0.9998 -2.063627e-02 2.063627e-02 0.9998 -1.5277 0.3625)" class="st6" cx="16.8" cy="74.2" rx="0.5" ry="2.1"/>
	<ellipse transform="matrix(0.9865 -0.1635 0.1635 0.9865 -13.4307 2.4221)" class="st5" cx="8" cy="82.8" rx="2.9" ry="1.5"/>
	<ellipse transform="matrix(0.9865 -0.1635 0.1635 0.9865 -13.5262 2.4464)" class="st6" cx="8.1" cy="83.4" rx="2" ry="0.5"/>
	<path class="st6" d="M10.1,79.6c-0.5,0.5-1,0.7-1.4,0.7c0.4,0.3,1.1,0,1.7-0.5c0.5-0.5,0.7-1.2,0.5-1.6
		C10.8,78.6,10.5,79.1,10.1,79.6z"/>
	<path class="st6" d="M13,70.4c-0.2,1-0.8,1.8-1.5,2.2c1,0,1.9-0.8,2.2-2s-0.1-2.2-0.9-2.7C13.1,68.5,13.2,69.4,13,70.4z"/>
	<path class="st6" d="M5.2,73.4c-0.1,1.3-0.8,2.3-1.5,2.3s-1.2-1-1.1-2.2c0.1-1.3,0.8-2.3,1.5-2.3S5.3,72.2,5.2,73.4z"/>
	<path class="st6" d="M2.1,73.6c0.1-1,0.5-2,0.9-2.5c-0.7,0.3-1.3,1.3-1.4,2.5c0,1.2,0.4,2.2,1,2.4C2.2,75.5,2,74.6,2.1,73.6z"/>
	<ellipse transform="matrix(0.2511 -0.968 0.968 0.2511 -71.6111 52.877)" class="st5" cx="-1.6" cy="72.7" rx="2.9" ry="1.5"/>
	<ellipse transform="matrix(0.2511 -0.968 0.968 0.2511 -71.8381 52.1849)" class="st6" cx="-2.2" cy="72.5" rx="2" ry="0.5"/>
</g>
<g>
	<ellipse transform="matrix(0.4676 -0.8839 0.8839 0.4676 -0.9978 152.7925)" class="st1" cx="126.3" cy="77.2" rx="0.5" ry="0.5"/>
	<ellipse transform="matrix(0.7987 -0.6017 0.6017 0.7987 -17.7582 85.6565)" class="st2" cx="119.1" cy="69.4" rx="0.3" ry="0.3"/>
	<ellipse transform="matrix(0.5326 -0.8464 0.8464 0.5326 -0.2376 144.4015)" class="st7" cx="130.6" cy="72.4" rx="9.7" ry="9.7"/>
	
		<ellipse transform="matrix(8.068058e-02 -0.9967 0.9967 8.068058e-02 54.8469 194.7964)" class="st8" cx="133" cy="67.7" rx="0.9" ry="1.4"/>
	
		<ellipse transform="matrix(0.7479 -0.6639 0.6639 0.7479 -16.4628 101.1255)" class="st8" cx="124.9" cy="72.2" rx="2.3" ry="1.5"/>
	<ellipse transform="matrix(0.7479 -0.6639 0.6639 0.7479 -11.8555 99.4573)" class="st7" cx="125" cy="65.3" rx="2.9" ry="1.5"/>
	<ellipse transform="matrix(0.7479 -0.6639 0.6639 0.7479 -11.5789 99.1261)" class="st8" cx="124.7" cy="64.8" rx="2.1" ry="0.5"/>
	<ellipse transform="matrix(0.6452 -0.764 0.764 0.6452 -1.7937 127.991)" class="st7" cx="136.9" cy="65.9" rx="1.5" ry="2.9"/>
	<ellipse transform="matrix(0.6452 -0.764 0.764 0.6452 -1.3183 128.0977)" class="st8" cx="137.3" cy="65.5" rx="0.5" ry="2"/>
	<path class="st8" d="M133.1,66.4c0.7,0,1.2,0.3,1.5,0.6c-0.1-0.5-0.7-0.9-1.5-0.9c-0.7,0-1.4,0.2-1.6,0.7
		C131.9,66.5,132.5,66.4,133.1,66.4z"/>
	<path class="st8" d="M124.2,70.2c0.9-0.5,1.9-0.5,2.6-0.2c-0.6-0.7-1.8-0.9-2.9-0.4s-1.6,1.6-1.5,2.5
		C122.7,71.3,123.3,70.6,124.2,70.2z"/>
	<path class="st8" d="M131.6,74.1c1-0.7,2.3-0.9,2.7-0.3c0.5,0.5,0,1.5-1,2.2s-2.3,0.9-2.7,0.3C130.1,75.8,130.6,74.8,131.6,74.1z"
		/>
	<path class="st8" d="M133.7,76.3c-0.8,0.6-1.8,0.9-2.6,0.9c0.6,0.4,1.8,0.2,2.8-0.6c1-0.7,1.5-1.6,1.2-2.2
		C135.1,75,134.6,75.7,133.7,76.3z"/>
	<ellipse transform="matrix(0.8998 -0.4364 0.4364 0.8998 -21.2132 67.1041)" class="st7" cx="135.5" cy="79.7" rx="2.9" ry="1.5"/>
	<ellipse transform="matrix(0.8998 -0.4364 0.4364 0.8998 -21.4548 67.2542)" class="st8" cx="135.7" cy="80.3" rx="2" ry="0.5"/>
</g>
<g>
	<ellipse transform="matrix(0.4676 -0.8839 0.8839 0.4676 56.7176 127.6487)" class="st1" cx="134.3" cy="16.7" rx="0.3" ry="0.3"/>
	<ellipse transform="matrix(0.7987 -0.6017 0.6017 0.7987 19.0171 80.5498)" class="st2" cx="129.9" cy="11.9" rx="0.2" ry="0.2"/>
	<ellipse transform="matrix(0.5326 -0.8464 0.8464 0.5326 52.3164 122.3296)" class="st9" cx="136.9" cy="13.8" rx="6" ry="6"/>
	
		<ellipse transform="matrix(8.068058e-02 -0.9967 0.9967 8.068058e-02 116.4846 147.8734)" class="st10" cx="138.4" cy="10.8" rx="0.5" ry="0.9"/>
	<ellipse transform="matrix(0.7479 -0.6639 0.6639 0.7479 24.5941 92.0236)" class="st10" cx="133.4" cy="13.6" rx="1.4" ry="1"/>
	<ellipse transform="matrix(0.7479 -0.6639 0.6639 0.7479 27.4156 90.9513)" class="st9" cx="133.4" cy="9.4" rx="1.8" ry="0.9"/>
	<ellipse transform="matrix(0.7479 -0.6639 0.6639 0.7479 27.5746 90.7475)" class="st10" cx="133.3" cy="9.1" rx="1.3" ry="0.3"/>
	<ellipse transform="matrix(0.6452 -0.764 0.764 0.6452 42.5355 111.0731)" class="st9" cx="140.8" cy="9.7" rx="0.9" ry="1.8"/>
	<ellipse transform="matrix(0.6452 -0.764 0.764 0.6452 42.8703 111.1583)" class="st10" cx="141.1" cy="9.4" rx="0.3" ry="1.3"/>
	<path class="st10" d="M138.4,10.1c0.4,0,0.8,0.2,0.9,0.4c0-0.3-0.4-0.5-0.9-0.6c-0.5,0-0.9,0.1-1,0.4
		C137.7,10.1,138,10.1,138.4,10.1z"/>
	<path class="st10" d="M133,12.4c0.6-0.3,1.2-0.3,1.6-0.1c-0.4-0.4-1.1-0.6-1.8-0.2c-0.7,0.3-1,1-0.9,1.5
		C132,13.1,132.4,12.7,133,12.4z"/>
	<path class="st10" d="M137.5,14.9c0.6-0.5,1.4-0.5,1.7-0.2c0.3,0.3,0,0.9-0.6,1.4c-0.6,0.5-1.4,0.5-1.7,0.2
		C136.6,15.9,136.9,15.3,137.5,14.9z"/>
	<path class="st10" d="M138.8,16.2c-0.5,0.4-1.1,0.6-1.6,0.6c0.4,0.2,1.1,0.1,1.8-0.4c0.6-0.4,0.9-1,0.8-1.4
		C139.7,15.4,139.3,15.8,138.8,16.2z"/>
	<ellipse transform="matrix(0.8998 -0.4364 0.4364 0.8998 6.0507 62.8835)" class="st9" cx="139.9" cy="18.3" rx="1.8" ry="0.9"/>
	<ellipse transform="matrix(0.8998 -0.4364 0.4364 0.8998 5.8846 62.9761)" class="st10" cx="140" cy="18.7" rx="1.3" ry="0.3"/>
</g>
<ellipse transform="matrix(0.9972 -7.499953e-02 7.499953e-02 0.9972 -2.8467 6.7915)" class="st1" cx="89" cy="41.3" rx="0.3" ry="0.3"/>
<ellipse transform="matrix(0.9972 -7.499953e-02 7.499953e-02 0.9972 -5.1075 6.7935)" class="st1" cx="87.9" cy="71.4" rx="0.3" ry="0.3"/>
<ellipse transform="matrix(0.9972 -7.499953e-02 7.499953e-02 0.9972 -2.1421 8.9655)" class="st1" cx="118.3" cy="33" rx="0.3" ry="0.3"/>
<ellipse transform="matrix(0.9972 -7.499953e-02 7.499953e-02 0.9972 -0.18 3.612)" class="st1" cx="48" cy="4.2" rx="0.3" ry="0.3"/>
<ellipse transform="matrix(0.9972 -7.499953e-02 7.499953e-02 0.9972 -0.3112 5.9148)" class="st1" cx="78.6" cy="7.1" rx="0.3" ry="0.3"/>
<ellipse transform="matrix(0.9972 -7.499953e-02 7.499953e-02 0.9972 -0.7982 9.7489)" class="st1" cx="129.4" cy="15.5" rx="0.3" ry="0.3"/>
<ellipse transform="matrix(0.9972 -7.499953e-02 7.499953e-02 0.9972 -4.6653 9.7665)" class="st1" cx="127.7" cy="67" rx="0.3" ry="0.3"/>
<ellipse transform="matrix(0.9972 -7.499953e-02 7.499953e-02 0.9972 -3.5895 2.0122)" class="st1" cx="25" cy="48.8" rx="0.3" ry="0.3"/>
<ellipse transform="matrix(0.9972 -7.499953e-02 7.499953e-02 0.9972 -4.2833 4.3444)" class="st1" cx="55.7" cy="59.2" rx="0.3" ry="0.3"/>
<ellipse transform="matrix(0.9972 -7.499953e-02 7.499953e-02 0.9972 -5.0539 3.0139)" class="st1" cx="37.6" cy="68.8" rx="0.3" ry="0.3"/>
<ellipse transform="matrix(0.9972 -7.499953e-02 7.499953e-02 0.9972 -4.029 0.5118)" class="st1" cx="4.8" cy="53.9" rx="0.3" ry="0.3"/>
<ellipse transform="matrix(0.9972 -7.499953e-02 7.499953e-02 0.9972 -0.4672 0.3553)" class="st1" cx="4.5" cy="6.4" rx="0.3" ry="0.3"/>
<g>
	<ellipse transform="matrix(0.4676 -0.8839 0.8839 0.4676 -6.4745 7.8254)" class="st1" cx="3.3" cy="9.3" rx="0.4" ry="0.4"/>
	<ellipse transform="matrix(0.7987 -0.6017 0.6017 0.7987 -2.4396 -0.5633)" class="st2" cx="-2.1" cy="3.4" rx="0.3" ry="0.3"/>
	<ellipse transform="matrix(0.5326 -0.8464 0.8464 0.5326 -1.8165 8.1108)" class="st11" cx="6.4" cy="5.7" rx="7.3" ry="7.3"/>
	
		<ellipse transform="matrix(8.068058e-02 -0.9967 0.9967 8.068058e-02 5.526 10.1277)" class="st12" cx="8.3" cy="2.1" rx="0.6" ry="1"/>
	<ellipse transform="matrix(0.7479 -0.6639 0.6639 0.7479 -3.1084 2.8031)" class="st12" cx="2.1" cy="5.5" rx="1.7" ry="1.2"/>
	<ellipse transform="matrix(0.7479 -0.6639 0.6639 0.7479 0.3336 1.6022)" class="st11" cx="2.3" cy="0.4" rx="2.2" ry="1.1"/>
	<ellipse transform="matrix(0.7479 -0.6639 0.6639 0.7479 0.5014 1.3132)" class="st12" cx="2" cy="0" rx="1.6" ry="0.4"/>
	<ellipse transform="matrix(0.6452 -0.764 0.764 0.6452 3.364 8.7818)" class="st11" cx="11.1" cy="0.8" rx="1.1" ry="2.2"/>
	<ellipse transform="matrix(0.6452 -0.764 0.764 0.6452 3.7037 8.922)" class="st12" cx="11.5" cy="0.5" rx="0.4" ry="1.5"/>
	<path class="st12" d="M8.3,1.2c0.5,0,0.9,0.2,1.1,0.5C9.3,1.3,8.9,1,8.3,1S7.2,1.2,7.1,1.5C7.4,1.3,7.9,1.2,8.3,1.2z"/>
	<path class="st12" d="M1.7,4c0.7-0.4,1.4-0.4,2-0.2C3.2,3.3,2.3,3.1,1.5,3.5S0.3,4.7,0.4,5.3C0.6,4.9,1,4.4,1.7,4z"/>
	<path class="st12" d="M7.2,7C8,6.4,8.9,6.4,9.3,6.7c0.4,0.4,0,1.1-0.7,1.7C7.8,9,6.9,9,6.5,8.7C6.1,8.3,6.4,7.5,7.2,7z"/>
	<path class="st12" d="M8.8,8.6C8.2,9.1,7.4,9.3,6.9,9.3C7.4,9.6,8.3,9.4,9,8.9s1.1-1.2,0.9-1.7C9.8,7.6,9.4,8.2,8.8,8.6z"/>
	<ellipse transform="matrix(0.8998 -0.4364 0.4364 0.8998 -3.8719 5.5126)" class="st11" cx="10.1" cy="11.2" rx="2.2" ry="1.1"/>
	<ellipse transform="matrix(0.8998 -0.4364 0.4364 0.8998 -4.0213 5.6287)" class="st12" cx="10.2" cy="11.6" rx="1.5" ry="0.4"/>
</g>
<g>
	<path class="st13" d="M98.5,64.7c0,5.7-9.7,10.4-21.7,10.4c-11.9,0-21.7-4.6-21.7-10.4l-4.3-46.5h51.9L98.5,64.7z"/>
	<path class="st14" d="M50.9,18.2l0.7,7.1c4.1,4.9,13.9,8.3,25.3,8.3s21.2-3.4,25.3-8.3l0.7-7.1C102.8,18.2,50.9,18.2,50.9,18.2z
		 M76.9,41.1c-0.9,0-1.8,0.8-1.8,1.8v23.6c0,0.9,0.8,1.8,1.8,1.8c0.9,0,1.8-0.8,1.8-1.8V42.8C78.6,41.8,77.8,41.1,76.9,41.1z
		 M85.6,40.2c-0.9,0-1.8,0.8-1.8,1.8l-0.9,23.5c0,0.9,0.8,1.8,1.8,1.8c0.9,0,1.8-0.8,1.8-1.8L87.3,42C87.3,41,86.5,40.2,85.6,40.2z
		 M93.4,38.4c-0.9,0-1.8,0.8-1.8,1.8l-1.8,23.1c0,0.9,0.8,1.8,1.8,1.8c0.9,0,1.8-0.8,1.8-1.8l1.8-23.1
		C95.2,39.2,94.4,38.4,93.4,38.4z M68.1,40.2c-0.9,0-1.8,0.8-1.8,1.8l0.9,23.6c0,0.9,0.8,1.8,1.8,1.8s1.8-0.8,1.8-1.8L69.9,42
		C69.9,41,69.1,40.2,68.1,40.2z M60.3,38.4c-0.9,0-1.8,0.8-1.8,1.8l1.8,23.1c0,0.9,0.8,1.8,1.8,1.8c1,0,1.8-0.8,1.8-1.8L62,40.2
		C62,39.2,61.2,38.4,60.3,38.4z"/>
	<path class="st13" d="M101.6,14.5c2.2,2.2,1.7,4.6,1.7,4.7c0,7.3-11.9,13.3-26.5,13.3s-26.5-6-26.5-13.3c0-0.1-0.4-2.7,1.7-4.7
		C53.5,12.8,100.1,12.8,101.6,14.5z"/>
	<path class="st15" d="M76.9,4.4c14.4,0,26,5.7,26,12.7s-11.6,12.7-26,12.7s-26-5.7-26-12.7S62.5,4.4,76.9,4.4z"/>
	<path class="st16" d="M61.9,23.6l-2.5,2.9c4.6,2,10.7,3.3,17.5,3.3s12.8-1.2,17.5-3.3l-2.5-2.9c-4.3,1.6-9.4,2.6-14.9,2.6
		C71.3,26.2,66.1,25.2,61.9,23.6z"/>
	<path class="st17" d="M76.9,8.8c11.7,0,21.7,3.5,26,8.4v-0.1c0-7-11.6-12.7-26-12.7s-26,5.7-26,12.7v0.1
		C55.2,12.3,65.2,8.8,76.9,8.8z"/>
	<path class="st18" d="M76.9,29.8c6.7,0,12.9-1.3,17.5-3.3l-7.8-9L75.7,29.8H76.9z"/>
	<path class="st19" d="M63.8,28l0.2,0.2c3.8,1,8.2,1.7,12.9,1.7c3.8,0,7.3-0.4,10.6-1.1l0.7-0.7L76,14C76,14,63.8,28,63.8,28z"/>
	<path class="st20" d="M76.9,29.8H78L67.2,17.5l-7.8,9C64,28.6,70.1,29.8,76.9,29.8z"/>
	<path class="st21" d="M75.7,29.7h1c6.7,0,12.8-1.2,17.5-3.3l-2.5-2.8c-3.7,1.4-8.1,2.4-12.9,2.6L75.7,29.7z"/>
	<path class="st22" d="M85.9,25.3c-2.8,0.6-5.9,0.9-9,0.9c-3.7,0-7.2-0.4-10.4-1.3l-2.6,3l0.1,0.1c3.8,1,8.3,1.7,13,1.7
		c3.8,0,7.5-0.4,10.7-1.1l0.7-0.7C88.3,27.9,85.9,25.3,85.9,25.3z"/>
	<path class="st16" d="M77.9,29.7l-3.1-3.5c-4.8-0.2-9.2-1.2-12.9-2.6l-2.5,2.9c4.6,2,10.7,3.3,17.5,3.3
		C77.2,29.7,77.6,29.7,77.9,29.7z"/>
</g>
<g>
	<path class="st23" d="M21.7,43.3c0.1,0,0.1,0,0.3,0c0.6,0,1.1,0.3,1.4,0.7c0.1,0.1,0.1,0.1,0.1,0.3c-0.5,1.3-1.6,3-3.1,4.5
		c-0.8,0.8-1.7,1.6-2.7,2.1c0.1-1.3,0.4-2.4,0.8-3.7c-0.4,0.2-0.8,0.4-1.3,0.6l-0.1-0.4c0.1-0.2,0.2-0.4,0.2-0.5
		c0.2-0.4,0.4-0.8,0.6-1.1c0.5-0.6,1.1-1.3,1.7-1.8C20.4,43.6,21,43.4,21.7,43.3z"/>
	<path class="st23" d="M33.1,48.9c-0.1-0.1-0.1-0.1-0.2-0.2c-0.4-0.4-0.9-0.8-1.5-0.6c-0.1,0-0.3,0-0.4,0.1
		c-0.7,1.3-1.4,3.1-1.6,5.2c-0.2,1.2-0.1,2.3,0,3.4c0.9-0.9,1.7-1.8,2.3-2.9c0.1,0.5,0.2,0.9,0.4,1.3c0,0,0.4-0.2,0.4-0.1
		c0.1-0.1,0.2-0.4,0.3-0.6c0.2-0.4,0.4-0.8,0.5-1.2c0.3-0.8,0.4-1.6,0.4-2.5C33.6,50.1,33.4,49.4,33.1,48.9z"/>
	<ellipse transform="matrix(0.6252 -0.7805 0.7805 0.6252 -29.2153 35.0615)" class="st24" cx="21.9" cy="47.9" rx="4.7" ry="0.7"/>
	<ellipse transform="matrix(0.4378 -0.8991 0.8991 0.4378 -28.8389 50.9007)" class="st24" cx="26.3" cy="48.5" rx="4.7" ry="0.7"/>
	<ellipse transform="matrix(0.3418 -0.9398 0.9398 0.3418 -28.1328 61.0799)" class="st24" cx="29.5" cy="50.6" rx="4.7" ry="0.7"/>
	<path class="st25" d="M30.5,47.9l-6.2-3.1c-1.6-0.7-2.2-2.6-1.5-4.2l1.6-3.1c0.7-1.6,2.6-2.2,4.2-1.5l6.2,3.1
		c1.6,0.7,2.2,2.6,1.5,4.2l-1.6,3.1C33.9,47.9,32,48.6,30.5,47.9z"/>
	<g>
		<path id="Github__x28_alt_x29_" class="st26" d="M51,23.4c-0.1,1.6-0.7,3.8-2.1,5.2c1.3,3-0.2,8-3,11.2c3,1.8,7,3.3,9,5.4
			c-2.1-1.4-4.9-3.5-8-4.7c-0.6-0.3-1.3-0.6-1.7,0.1c3.3,2,6.5,3.8,8.9,6.1c-2.5-1.8-5.6-4.2-9-5.9c-2.8,2.1-6.3,2.1-10.3,0.4
			c-0.1,1.1,0.6,1.9,0.1,3.5c-0.8,2.3-3.1,5.2-3.1,7.1c0.1,0.9,0.6,1.2,0.7,2c-1.6,0.7-3.3-1.8-3-3.1c0.5-2.3,3.3-4.9,2.7-6.9
			c-1,2.3-3.2,5.2-3.5,7.5c-0.2,0.9,0.4,1.6-0.1,2.1c-4.7-1.7,0.3-7.1,1.3-11.2c-0.7-0.3-0.8,0.8-1.1,1.2c-1.8,3.6-3.4,8.9-7.1,6.5
			c0.3-0.8,1.1-0.8,1.6-1.3c1.7-1.7,2.3-5.2,3.9-7.4c-2.1,0.4-2.3,5.2-4.2,6.6c-1.1,0.8-3.1,0.6-4.1-0.6c0.6-0.8,1.5-0.2,2.1-0.8
			c1.1-0.9,1.3-2.8,2.3-4.3c-3-0.8-4.7-2.5-5.1-4.7c-0.1-1.1,0.3-2,0-3c-0.3-1-1.1-1.4-0.9-2.6c3.8,0.8,1.8,5.2,4.8,6.8
			c0.9,0.5,1.6,0.4,2.5,0.6c0.8-1,1.7-1.6,2.8-1.8c-3.5-2.4-6.1-5.1-6.2-8.6c-3.5-1.6-6.9-2.5-10.2-3.4C14,25.8,17.5,27,21,28.6
			c0.4-1.3-1.6-1.9-2.7-2.4c-2.2-0.9-4.9-2-6.7-2.5c2.8,0.3,6.2,2.1,9.5,3.7c0.6-3.7,3.3-8.5,6.4-9.2c0.1-1.8,1.6-4.3,3-5.2
			c2.4,1.3,3.3,3,4.4,4.8c2.2,0.4,4.2,1.1,6.8,2.5c1.1,0.6,2,1.6,2.8,2c0.8,0.3,2.1-0.1,3.1-0.1C48.8,22.7,49.8,22.9,51,23.4z"/>
	</g>
	<ellipse transform="matrix(0.4378 -0.8991 0.8991 0.4378 -9.6474 48.3667)" class="st27" cx="33.8" cy="31.9" rx="7.6" ry="11.6"/>
	<path class="st28" d="M31.7,18.2c1.2-0.1,2.1,0,3,0.3c-0.4-0.9-1.1-2.3-2.5-3.6c-0.7-0.7-1.4-1.1-2-1.4c-0.1,0.1-0.1,0.1-0.1,0.2
		L31.7,18.2z"/>
	<ellipse transform="matrix(0.4378 -0.8991 0.8991 0.4378 -10.0897 42.2696)" class="st29" cx="28.8" cy="29.2" rx="3.5" ry="2.4"/>
	<ellipse transform="matrix(0.4378 -0.8991 0.8991 0.4378 -8.8916 54.5223)" class="st29" cx="39.1" cy="34.4" rx="3.5" ry="2.4"/>
	<ellipse transform="matrix(0.4378 -0.8991 0.8991 0.4378 -10.0667 42.1673)" class="st30" cx="28.7" cy="29.1" rx="2.3" ry="1.7"/>
	<ellipse transform="matrix(0.4378 -0.8991 0.8991 0.4378 -8.7814 54.5485)" class="st30" cx="39.2" cy="34.3" rx="2.3" ry="1.7"/>
	<ellipse transform="matrix(0.4378 -0.8991 0.8991 0.4378 -12.4964 48.9016)" class="st30" cx="32.9" cy="34.4" rx="0.5" ry="0.5"/>
	<path class="st30" d="M30.1,35.5c0.5,1.3,1.9,2.1,3.3,1.6"/>
	<g>
		<path class="st31" d="M35.9,21.1L35.9,21.1c0.1,0.1,0.1,0.1,0.2,0.2l2.3-0.8l0.1-0.1l0,0l-0.1-0.1L36.1,21
			C35.9,20.9,35.8,21,35.9,21.1z"/>
		<path class="st31" d="M39.2,22.7L39.2,22.7c0.1-0.1,0.1-0.1,0.2-0.2l-0.8-2.3L38.5,20l0,0l-0.1,0.1l0.8,2.3
			C38.9,22.7,39,22.8,39.2,22.7z"/>
		<path class="st31" d="M37,24.2L37,24.2c0.1-0.1,0.1-0.1,0.2-0.2l-0.9-2.9l-0.1-0.1l0,0L36,21.1L37,24C36.8,24.1,37,24.2,37,24.2z"
			/>
		<path class="st31" d="M39.3,22.6L39.3,22.6c0.1-0.1,0.1-0.2,0-0.3l-2.8-1.4c-0.1-0.1-0.1,0-0.2,0.1l-0.1,0.1
			c-0.1,0.1,0,0.1,0.1,0.2l2.8,1.4C39.2,22.8,39.2,22.7,39.3,22.6z"/>
		<g>
			<ellipse transform="matrix(0.4378 -0.8991 0.8991 0.4378 1.5332 46.1549)" class="st31" cx="37.7" cy="21.9" rx="0.5" ry="0.5"/>
			<g>
				<path class="st32" d="M38.1,22.1c0.1-0.1-0.1-0.1-0.1-0.2L37.9,22C37.9,22,37.9,22,38.1,22.1C37.9,22.1,38.1,22.1,38.1,22.1z"/>
				<path class="st32" d="M37.5,21.6c-0.2-0.1-0.2-0.1-0.3,0c-0.1,0.1,0.1,0.1,0.2,0.2c0,0,0,0,0.1-0.1V21.6z"/>
				<path class="st32" d="M37.6,22.1c0.1,0.2,0.2,0.4,0.2,0.4s0.1-0.2,0-0.3C37.7,22.1,37.7,22,37.6,22.1L37.6,22.1z"/>
				<path class="st32" d="M37.7,21.7c-0.1-0.2-0.2-0.4-0.2-0.4s-0.1,0.1,0,0.3C37.5,21.6,37.5,21.7,37.7,21.7L37.7,21.7z"/>
				<path class="st32" d="M37.6,21.8L37.6,21.8c0,0-0.1-0.1-0.1-0.1v0.1C37.5,21.8,37.6,21.8,37.6,21.8z"/>
				<path class="st32" d="M37.7,22L37.7,22C37.7,22.1,37.8,22.1,37.7,22C37.8,22,37.8,22,37.7,22L37.7,22z"/>
				<path class="st32" d="M37.9,21.9c0.1-0.1,0.2-0.1,0.1-0.1c0,0-0.2-0.1-0.4,0l0,0C37.8,21.9,37.9,21.9,37.9,21.9z"/>
				<path class="st32" d="M37.3,21.8c-0.1,0.1-0.2,0.1-0.2,0.2c0,0,0.2,0.1,0.4,0l0,0C37.5,21.9,37.4,21.9,37.3,21.8z"/>
				<path class="st32" d="M37.5,21.9L37.5,21.9c-0.1-0.1-0.1-0.1-0.1,0C37.4,21.9,37.5,21.9,37.5,21.9L37.5,21.9z"/>
				<path class="st32" d="M37.7,21.8L37.7,21.8c0.1,0,0.1,0,0.1,0S37.8,21.9,37.7,21.8L37.7,21.8z"/>
				<path class="st32" d="M37.7,21.7C37.7,21.8,37.7,21.8,37.7,21.7L37.7,21.7L37.7,21.7L37.7,21.7z"/>
				<path class="st32" d="M37.5,22C37.5,22,37.5,21.9,37.5,22C37.5,22,37.6,22.1,37.5,22C37.6,22.1,37.7,22,37.5,22
					C37.7,22,37.7,22,37.5,22z"/>
				<path class="st32" d="M37.7,21.8C37.7,21.7,37.7,21.7,37.7,21.8C37.7,21.7,37.7,21.7,37.7,21.8C37.6,21.8,37.6,21.8,37.7,21.8
					c-0.1,0-0.1,0-0.2,0.1c0,0,0,0,0.1,0.1l0,0l0.1,0.1l0.1,0.1l0,0c0,0,0,0,0.1-0.1c0,0,0,0-0.1-0.1C37.7,21.8,37.7,21.8,37.7,21.8
					z"/>
			</g>
		</g>
		<path class="st31" d="M36.8,24L36.8,24c0.1,0.1,0.1,0.1,0.2,0.2l0.6-0.1l0.1-0.1l0,0l-0.1-0.1L37,23.9
			C36.8,23.8,36.7,23.9,36.8,24z"/>
		<text transform="matrix(0.8991 0.4378 -0.4378 0.8991 37.5554 23.2331)" class="st31 st33 st34">Webpage</text>
	</g>
	<path class="st28" d="M48.8,30.5c-0.3,1.4-1,3.3-2,5.2c-1.2,2.5-2.5,4.5-3.5,5.4c1,0.4,3-1.7,4.4-4.7C49,33.8,49.5,31.2,48.8,30.5z
		"/>
	<ellipse transform="matrix(0.4378 -0.8991 0.8991 0.4378 -7.856 33.976)" class="st26" cx="23.2" cy="23.3" rx="3.5" ry="1.7"/>
	<ellipse transform="matrix(0.4378 -0.8991 0.8991 0.4378 -5.1 63.1268)" class="st26" cx="47.9" cy="35.6" rx="3.5" ry="1.7"/>
	<ellipse transform="matrix(0.4378 -0.8991 0.8991 0.4378 -7.8875 33.638)" class="st28" cx="23" cy="23.1" rx="2.1" ry="1"/>
	<ellipse transform="matrix(0.4378 -0.8991 0.8991 0.4378 -5.0742 63.4604)" class="st28" cx="48.2" cy="35.8" rx="2.1" ry="1"/>
	<path class="st35" d="M44,36.3c0.2-1.2-0.4-2.3-1.4-3.3l-9.5,5.7c0.9,0.5,1.9,0.8,3.2,0.9C40.1,40.1,43.5,38.6,44,36.3z"/>
	<path class="st35" d="M28.5,24.2c0.9-0.1,1.8,0.5,2.2,1.5l-6.4,6.9c-0.1-0.8-0.1-1.7,0-2.7C24.7,26.8,26.6,24.3,28.5,24.2z"/>
	<path class="st23" d="M29.1,55.4c0.1,0.2,0.1,0.4,0.1,0.6c0.3,1.3,0.1,2.6-0.4,3.9c-0.5,1.6-1.3,3.1-2.3,4.5
		c-0.5,0.6-1.1,1.3-1.6,1.9c-0.3,0.3-0.5,0.6-0.8,0.7c0,0-0.9,0.2-0.8,0.1c0-1,0.1-1.8,0.3-2.8c-2.9,2.3-6.2,4.2-9.6,5.2
		c1.3-2.4,2.1-5.1,2.3-7.8c-1.8-0.1-3.5-0.1-5.3-0.2c1.6-1.4,3-2.9,3.8-4.8c0.4-0.9,0.6-1.9,0.9-2.8c0.4-0.9,0.8-1.9,1.6-2.5
		c0.9-0.8,2.2-0.9,3.4-1c0.9-0.1,1.8,0,2.5,0.6c0.6,0.5,0.9,1.3,1.6,1.6c0.6,0.4,1.5,0.4,2.2,0.5C27.8,53.5,28.8,54.4,29.1,55.4z"/>
	<path class="st36" d="M27.6,55.9c0.1,0.1,0.1,0.3,0.1,0.4c0.3,1,0.1,2.1-0.3,3c-0.4,1.3-1,2.4-1.8,3.5c-0.4,0.5-0.8,1-1.3,1.6
		c-0.2,0.2-0.4,0.5-0.7,0.6C23.6,64.9,23,65,23,64.9c0.1-0.8,0.1-1.6,0.3-2.3c-2.3,1.8-4.7,3.2-7.6,4c1.1-1.9,1.6-4,1.8-6.1
		c-1.4,0-2.8-0.1-4.2-0.1c1.1-1.1,2.4-2.3,3-3.7c0.3-0.7,0.5-1.5,0.6-2.2c0.3-0.7,0.6-1.4,1.3-2c0.7-0.6,1.7-0.7,2.6-0.8
		c0.7,0,1.4,0,2,0.4c0.5,0.4,0.7,1,1.3,1.3c0.5,0.4,1.1,0.3,1.8,0.4C26.6,54.3,27.3,55,27.6,55.9z"/>
</g>
</svg>
