<?xml version="1.0" encoding="utf-8"?>
<svg version="1.1" id="Capa_1" xmlns="http://www.w3.org/2000/svg" xmlns:xlink="http://www.w3.org/1999/xlink" x="0px" y="0px"
	 viewBox="0 0 34.8 33.8" style="enable-background:new 0 0 33 29;" xml:space="preserve">
<style type="text/css">
	.st0{fill:#FFFFFF;}
	.st1{fill:#556080;}
	.st2{fill:#EBBA16;}
	.st3{fill:#DD352E;}
	.st4{fill:#B02721;}
</style>
<polygon class="st0" points="26.7,12.4 22.2,12.4 10.6,12.4 6.1,12.4 4.4,25.4 28.1,25.4 "/>
<path class="st1" d="M26.7,12.4l1.4,13H4.4l1.6-13h4.5h11.7H26.7 M27.9,11.1h-1.2h-4.5H10.6H6.1H4.9l-0.1,1.2l-1.6,13l-0.2,1.5h1.5
	h23.7h1.5l-0.2-1.5l-1.4-13L27.9,11.1L27.9,11.1z"/>
<path class="st2" d="M9,23.6c-0.1,0-0.2,0-0.3,0c-0.1,0-0.2,0-0.3-0.1C8.2,23.5,8,23.3,8.1,23c0.1-0.2,0.3-0.4,0.5-0.3
	c0.1,0,0.1,0,0.2,0c0.2,0,0.4,0,0.5,0c0.2,0,0.5,0.1,0.5,0.4c0,0.2-0.1,0.5-0.4,0.5C9.3,23.6,9.2,23.6,9,23.6z M11.1,23.1
	c-0.2,0-0.3-0.1-0.4-0.3c-0.1-0.2,0-0.5,0.3-0.6c0.3-0.1,0.5-0.2,0.8-0.3c0.2-0.1,0.5,0,0.6,0.2c0.1,0.2,0,0.5-0.2,0.6
	c-0.3,0.1-0.6,0.3-0.9,0.4C11.2,23.1,11.2,23.1,11.1,23.1z M7.4,22.3c-0.2,0-0.4-0.2-0.4-0.4c0-0.1,0-0.2,0-0.3c0-0.1,0-0.1,0-0.2
	c0-0.2,0-0.4,0.1-0.6c0.1-0.2,0.3-0.4,0.6-0.3c0.2,0.1,0.4,0.3,0.3,0.6c0,0.1-0.1,0.3-0.1,0.4c0,0,0,0.1,0,0.1c0,0.1,0,0.1,0,0.2
	C7.9,22.1,7.7,22.3,7.4,22.3C7.4,22.3,7.4,22.3,7.4,22.3z M13.5,21.9c-0.1,0-0.3-0.1-0.4-0.2c-0.1-0.2-0.1-0.5,0.1-0.6
	c0.2-0.2,0.5-0.3,0.7-0.5c0.2-0.1,0.5-0.1,0.6,0.1c0.1,0.2,0.1,0.5-0.1,0.6c-0.2,0.2-0.5,0.4-0.8,0.5C13.7,21.9,13.6,21.9,13.5,21.9
	z M15.7,20.3c-0.1,0-0.3-0.1-0.4-0.2c-0.1-0.2-0.1-0.5,0.1-0.6c0.1-0.1,0.2-0.1,0.3-0.2c0.2-0.1,0.4-0.2,0.5-0.3
	c0.2-0.1,0.5,0,0.6,0.2c0.1,0.2,0,0.5-0.2,0.6c-0.2,0.1-0.3,0.2-0.5,0.3c-0.1,0.1-0.2,0.1-0.2,0.2C15.8,20.2,15.7,20.3,15.7,20.3z
	 M8.5,20c-0.2,0-0.3-0.1-0.4-0.2c-0.1-0.2,0-0.5,0.2-0.6C8.5,19.1,8.8,19,9,19c0.1,0,0.3,0,0.4,0c0.2,0,0.4,0.3,0.4,0.5
	c0,0.2-0.3,0.4-0.5,0.4c-0.1,0-0.1,0-0.2,0c-0.1,0-0.3,0.1-0.4,0.1C8.6,20,8.6,20,8.5,20z M18.1,19.2c-0.2,0-0.4-0.1-0.4-0.4
	c-0.1-0.2,0.1-0.5,0.3-0.5c0.3-0.1,0.6-0.1,0.9-0.2c0.2,0,0.5,0.1,0.5,0.4c0,0.2-0.1,0.5-0.4,0.5C18.8,19.1,18.5,19.1,18.1,19.2
	C18.2,19.2,18.1,19.2,18.1,19.2z M20.8,18.9c-0.2,0-0.4-0.2-0.4-0.4c0-0.2,0.2-0.5,0.4-0.5l0.9,0c0.2,0,0.5,0.2,0.5,0.4
	c0,0.2-0.2,0.5-0.4,0.5L20.8,18.9C20.8,18.9,20.8,18.9,20.8,18.9z M23.5,18.7c-0.2,0-0.4-0.1-0.4-0.4c0-0.2,0.1-0.5,0.3-0.5
	c0.3-0.1,0.5-0.1,0.6-0.2c0.2-0.2,0.5-0.1,0.6,0.1c0.2,0.2,0.1,0.5-0.1,0.6c0,0,0,0-0.1,0.1C24.3,18.5,23.9,18.6,23.5,18.7
	C23.5,18.7,23.5,18.7,23.5,18.7z M25.3,16.9c0,0-0.1,0-0.1,0c-0.2-0.1-0.4-0.3-0.3-0.6c0-0.1,0-0.2,0-0.2l0-0.1c0-0.1,0-0.2-0.1-0.3
	c-0.1-0.2,0-0.5,0.3-0.6c0.2-0.1,0.5,0,0.6,0.3c0.1,0.2,0.1,0.4,0.1,0.6c0,0,0,0.1,0,0.1c0,0.1,0,0.3-0.1,0.4
	C25.7,16.8,25.5,16.9,25.3,16.9z M23,15.1c-0.2,0-0.4-0.1-0.4-0.3c-0.1-0.2,0.1-0.5,0.3-0.6c0.3-0.1,0.7-0.1,1.1-0.1
	c0.2,0,0.4,0.3,0.4,0.5c0,0.2-0.3,0.4-0.5,0.4c-0.2,0-0.5,0-0.7,0.1C23.1,15.1,23.1,15.1,23,15.1z"/>
<path class="st3" d="M21.2,6.7c-0.2-1.8-1.2-4.1-4.9-4.1c-3.7,0-4.6,2.3-4.9,4.1c-0.1,1-0.1,2,0.1,3c1.1,5.3,3.9,8.5,4.6,9.2
	c0.1,0.1,0.2,0.1,0.3,0c0.7-0.7,3.4-3.9,4.6-9.2C21.3,8.6,21.4,7.6,21.2,6.7z M16.4,10.1c-1.6,0-2.8-1.3-2.8-2.8s1.3-2.8,2.8-2.8
	s2.8,1.3,2.8,2.8C19.2,8.9,17.9,10.1,16.4,10.1z"/>
<g>
	<path class="st4" d="M16.4,4c-1.8,0-3.3,1.5-3.3,3.3c0,1.8,1.5,3.3,3.3,3.3s3.3-1.5,3.3-3.3C19.7,5.5,18.2,4,16.4,4z M16.4,9.7
		c-1.3,0-2.4-1.1-2.4-2.4s1.1-2.4,2.4-2.4s2.4,1.1,2.4,2.4S17.7,9.7,16.4,9.7z"/>
</g>
</svg>
