<?xml version="1.0" encoding="utf-8"?>
<svg version="1.1" id="Layer_1" xmlns="http://www.w3.org/2000/svg" xmlns:xlink="http://www.w3.org/1999/xlink" x="0px" y="0px"
	 viewBox="0 0 34.8 33.8" style="enable-background:new 0 0 34.8 33.8;" xml:space="preserve">
<style type="text/css">
	.st0{fill:#56B48C;}
	.st1{fill:#FFFFFF;}
</style>
<path class="st0" d="M17.4,4.8c-6.7,0-12.1,5.4-12.1,12.1S10.7,29,17.4,29s12.1-5.4,12.1-12.1S24.1,4.8,17.4,4.8z"/>
<path class="st1" d="M18.9,11.9c-0.1-0.2-0.4-0.3-0.6-0.3c-0.2,0-0.4,0-0.5,0.1c-0.1,0.1-0.2,0.3-0.5,0.7s-0.6,0.7-0.9,1
	C16,13.7,15.6,14,15,14.3c-0.4,0.2-0.7,0.3-0.8,0.4c-0.1,0.1-0.2,0.3-0.2,0.5c0,0.2,0.1,0.4,0.2,0.6c0.1,0.2,0.3,0.2,0.5,0.2
	c0.4,0,1.2-0.5,2.4-1.4v6.5c0,0.4,0.1,0.7,0.3,0.9c0.2,0.2,0.4,0.3,0.7,0.3c0.7,0,1-0.5,1-1.4v-8.2C19.1,12.3,19,12.1,18.9,11.9z"/>
</svg>
