<?xml version="1.0" encoding="utf-8"?>
<!-- Generator: Adobe Illustrator 21.0.2, SVG Export Plug-In . SVG Version: 6.00 Build 0)  -->
<svg version="1.1" id="Layer_1" xmlns="http://www.w3.org/2000/svg" xmlns:xlink="http://www.w3.org/1999/xlink" x="0px" y="0px"
	 viewBox="0 0 31.5 23.5" style="enable-background:new 0 0 31.5 23.5;" xml:space="preserve">
<style type="text/css">
	.st0{fill:#00A699;}
</style>
<g>
	<g>
		<g>
			<path class="st0" d="M29.4,3.4H2.2c-0.8,0-1.5,0.7-1.5,1.5v7.8c0,0.8,0.7,1.5,1.5,1.5h12.2v3h-1.5c-0.8,0-1.5,0.7-1.5,1.5v0.5
				c0,0.5,0.4,1,1,1h6.8c0.5,0,1-0.4,1-1v-0.5c0-0.8-0.7-1.5-1.5-1.5h-1.5v-3h12.2c0.8,0,1.5-0.7,1.5-1.5V4.9
				C30.9,4,30.2,3.4,29.4,3.4z M18.7,17.9c0.3,0,0.5,0.2,0.5,0.5v0.5l0,0h-6.8l0,0v-0.5c0-0.3,0.2-0.5,0.5-0.5H18.7z M15.3,17v-3
				h1.1v3H15.3z M29.9,12.6c0,0.3-0.2,0.5-0.5,0.5H2.2c-0.3,0-0.5-0.2-0.5-0.5V4.8c0-0.3,0.2-0.5,0.5-0.5h27.2
				c0.3,0,0.5,0.2,0.5,0.5C29.9,4.8,29.9,12.6,29.9,12.6z"/>
			<path class="st0" d="M5.5,8c0-0.9-0.8-1.7-1.7-1.7H3.2c-0.3,0-0.5,0.2-0.5,0.5v3.9c0,0.3,0.2,0.5,0.5,0.5s0.5-0.2,0.5-0.5v-1H4
				l0.8,1.2C4.9,11,5,11.1,5.2,11.1c0.1,0,0.2,0,0.3-0.1c0.2-0.1,0.3-0.4,0.1-0.6l-0.7-1C5.2,9.1,5.5,8.6,5.5,8z M3.9,8.8H3.6V7.2
				h0.3c0.4,0,0.8,0.3,0.8,0.8S4.3,8.8,3.9,8.8z"/>
			<path class="st0" d="M19.2,8c0-0.9-0.8-1.7-1.7-1.7h-0.7c-0.3,0-0.5,0.2-0.5,0.5v3.9c0,0.3,0.2,0.5,0.5,0.5s0.5-0.2,0.5-0.5v-1
				h0.3l0.9,1.3c0.1,0.1,0.2,0.2,0.4,0.2c0.1,0,0.2,0,0.3-0.1c0.2-0.1,0.3-0.4,0.1-0.6l-0.7-1C18.9,9.1,19.2,8.6,19.2,8z M17.5,8.8
				h-0.3V7.2h0.3c0.4,0,0.8,0.3,0.8,0.8S17.9,8.8,17.5,8.8z"/>
			<path class="st0" d="M8.5,7.2C8.8,7.2,9,7,9,6.7S8.8,6.2,8.5,6.2h-2C6.2,6.2,6,6.4,6,6.7v3.9c0,0.3,0.2,0.5,0.5,0.5h2
				c0.3,0,0.5-0.2,0.5-0.5s-0.2-0.5-0.5-0.5H7.1v-1h1c0.3,0,0.5-0.2,0.5-0.5S8.3,8.1,8.1,8.1h-1V7.2H8.5z"/>
			<path class="st0" d="M25.5,7.2C25.8,7.2,26,7,26,6.7s-0.2-0.5-0.5-0.5h-2c-0.3,0-0.5,0.2-0.5,0.5v3.9c0,0.3,0.2,0.5,0.5,0.5h2
				c0.3,0,0.5-0.2,0.5-0.5s-0.2-0.5-0.5-0.5H24v-1h1c0.3,0,0.5-0.2,0.5-0.5S25.3,8.1,25,8.1h-1V7.2H25.5z"/>
			<path class="st0" d="M15.3,7.2c0.3,0,0.5-0.2,0.5-0.5s-0.2-0.5-0.5-0.5h-2c-0.3,0-0.5,0.2-0.5,0.5v3.9c0,0.3,0.2,0.5,0.5,0.5h2
				c0.3,0,0.5-0.2,0.5-0.5s-0.2-0.5-0.5-0.5h-1.5v-1h1c0.3,0,0.5-0.2,0.5-0.5s-0.2-0.5-0.5-0.5h-1V7.2H15.3z"/>
			<path class="st0" d="M11,6.3L11,6.3c-0.9,0-1.5,0.6-1.5,1.4c0,0.5,0.3,1,0.8,1.2l1,0.5c0.2,0.1,0.3,0.2,0.3,0.4
				c0,0.3-0.2,0.5-0.5,0.5H11c-0.3,0-0.5-0.2-0.5-0.5V9.7c0-0.3-0.2-0.5-0.5-0.5S9.5,9.4,9.5,9.7v0.1c0,0.8,0.6,1.4,1.4,1.4H11
				c0.8,0,1.4-0.6,1.4-1.4c0-0.5-0.3-1-0.8-1.2l-1-0.5c-0.2-0.1-0.3-0.2-0.3-0.4c0-0.3,0.2-0.5,0.5-0.5h0.1c0.3,0,0.5,0.2,0.5,0.5
				v0.1c0,0.3,0.2,0.5,0.5,0.5s0.5-0.2,0.5-0.5V7.7C12.3,6.9,11.8,6.3,11,6.3z"/>
			<path class="st0" d="M22.2,6.3c-0.3-0.1-0.5,0.1-0.6,0.3l-0.5,2.1l-0.5-2.1c-0.1-0.3-0.3-0.4-0.6-0.3c-0.3,0.1-0.4,0.3-0.3,0.6
				l1,3.9c0.1,0.2,0.2,0.4,0.5,0.4c0.2,0,0.4-0.1,0.5-0.4l1-3.9C22.6,6.6,22.5,6.3,22.2,6.3z"/>
			<path class="st0" d="M27.5,6.3H27c-0.3,0-0.5,0.2-0.5,0.5v3.9c0,0.3,0.2,0.5,0.5,0.5h0.5c1.1,0,2-0.9,2-2v-1
				C29.4,7.1,28.5,6.3,27.5,6.3z M28.5,9.2c0,0.6-0.5,1-1,1l0,0v-3l0,0c0.6,0,1,0.5,1,1V9.2z"/>
		</g>
	</g>
</g>
</svg>
