<?xml version="1.0" encoding="utf-8"?>
<svg version="1.1" id="Capa_1" xmlns="http://www.w3.org/2000/svg" xmlns:xlink="http://www.w3.org/1999/xlink" x="0px" y="0px"
	 viewBox="0 0 31.5 23.5" style="enable-background:new 0 0 31.5 23.5;" xml:space="preserve">
<style type="text/css">
	.st0{fill:#00A699;}
</style>
<path class="st0" d="M25.7,21.5l-5.9-6.1c1.5-1.5,2.4-3.6,2.4-5.8c0-4.6-3.7-8.3-8.3-8.3S5.7,5,5.7,9.6s3.7,8.3,8.3,8.3
	c2,0,3.8-0.7,5.3-1.9l5.9,6.1c0.1,0.1,0.2,0.1,0.3,0.1c0.1,0,0.2,0,0.3-0.1C25.8,22,25.8,21.7,25.7,21.5z M14,17.1
	c-4.1,0-7.5-3.4-7.5-7.5S9.8,2.1,14,2.1s7.5,3.4,7.5,7.5S18.1,17.1,14,17.1z"/>
</svg>
