<?xml version="1.0" encoding="utf-8"?>
<!-- Generator: Adobe Illustrator 21.0.2, SVG Export Plug-In . SVG Version: 6.00 Build 0)  -->
<svg version="1.1" id="Layer_1" xmlns="http://www.w3.org/2000/svg" xmlns:xlink="http://www.w3.org/1999/xlink" x="0px" y="0px"
	 viewBox="0 0 1503.2 1203.1" style="enable-background:new 0 0 1503.2 1203.1;" xml:space="preserve">
<style type="text/css">
	.st0{fill:#253141;}
	.st1{fill:#FFFFFF;}
	.st2{fill:#CCC4C4;}
	.st3{fill:#C9D832;}
	.st4{fill:#CCD900;}
	.st5{fill:none;stroke:#CCD900;stroke-width:3;stroke-miterlimit:10;}
	.st6{clip-path:url(#SVGID_2_);fill:#6BA9DD;}
	.st7{fill:#BE3B30;}
	.st8{fill:#BE311D;}
	.st9{fill:#2A8DA2;}
	.st10{fill:#2A8392;}
</style>
<rect class="st0" width="1503.2" height="1203.1"/>
<path class="st1" d="M1055.1,318.3c-3.9-9.5-8.7-19-16.2-26.1s-18.2-11.5-28.2-9.2c-16.2,3.7-23.9,26.7-13.3,39.4
	c3.3,4,7.8,6.8,11.2,10.7c4.5,5.1,6.9,11.7,8.8,18.2c10.1,33.8,11.5,70.1,4.1,104.6c-3.9,18-10.6,36.2-24.4,48.4
	c-14.8,13.1-35.7,17.1-55.5,16.9c-37.9-0.3-75.5-14.7-103.9-39.8c-25.3,25-66.4,32.4-98.9,17.8c-7.8-3.5-15.5-8.3-24.1-8.9
	c-0.3,0-0.6,0-1,0c-5.6-0.2-11.1,1.6-16.5,3.4c-39.4,13.1-79.1,28.8-109.4,57.2c-30.2,28.4-49.2,72.1-37.9,112
	c2.4,8.4,6.2,16.5,11.3,23.6c0-3.4,0.9-6.9,2.7-10.1c5.1-8.9,15.8-12.4,23.7-7.8c8,4.6,10.2,15.5,5.1,24.4c-3.2,5.6-8.5,9-14,9.7
	c14.6,8.8,33.1,11.3,49.7,7c19.9-5.1,37-19.1,47.3-36.8c-8.3-8.9-16.5-17.8-24.8-26.7c-7.4,8.6-15.1,17.5-25.5,22.2
	s-24.1,3.9-31.3-4.9c-3.5-4.3-5-9.9-5.4-15.5c-1.3-19.1,9.8-36.9,22.3-51.3c20.6-23.6,46.5-42.6,75.2-55.1c1,27.4,2.9,54.8,5.9,82
	c0.6,5.6,0.9,11.4,2.9,16.7c1.4,3.6,3.1,6.7,3.8,10.5c2.4,12.9,1.7,27.2,1.5,40.3c0,0.8-0.1,9-0.2,9c50.8-1.2,101.7-2.4,152.5-3.6
	c1-43.2,2.1-86.5,3.1-129.7c0.1-4.2,0.4-8.8,3.4-11.6c4.1-3.8,10.5-2.4,15.9-1c38.5,10.3,79.9,9.1,117.7-3.4
	c20.8-6.9,41.1-17.7,54.5-35.1c11.6-15.1,17.1-34,20.6-52.8C1077.4,414.8,1074,363.7,1055.1,318.3z"/>
<ellipse class="st2" cx="674.9" cy="409.3" rx="10.8" ry="31.1"/>
<ellipse class="st2" cx="871.2" cy="409.3" rx="10.8" ry="31.1"/>
<circle class="st1" cx="773.1" cy="407.9" r="98.1"/>
<rect x="691.5" y="389.6" transform="matrix(0.7071 -0.7071 0.7071 0.7071 -79.0085 609.2128)" class="st1" width="8.8" height="20.8"/>
<rect x="843.2" y="389.6" transform="matrix(0.7071 0.7071 -0.7071 0.7071 531.0764 -482.1757)" class="st1" width="8.8" height="20.8"/>
<path class="st3" d="M598.3,544.9c0,0,9.3,34.3,28.8,37.8l7-8.1c0,0-28.1-17.1-27.3-38.8l-10,6.7L598.3,544.9z"/>
<polygon class="st2" points="719.5,491.2 738.3,584.5 814.5,584.5 834,487.5 827.7,490.1 810,575.2 756.5,576.5 739,499.4 "/>
<circle class="st1" cx="737.6" cy="532.5" r="5.5"/>
<circle class="st1" cx="743.1" cy="558.3" r="5.5"/>
<path class="st2" d="M690.5,604.2c0,0,73.2,35.7,164.8-1.3l-0.4,18.3c0,0-84.4,33-162.7,0"/>
<path class="st3" d="M927.5,559.2c0,0,21.3-23.5,15.2-38l-9.1-0.5c0,0-0.2,27.1-16.6,37.6l9.4,3.1L927.5,559.2z"/>
<rect x="700.8" y="692.4" class="st2" width="153.4" height="12.5"/>
<ellipse transform="matrix(0.5861 -0.8102 0.8102 0.5861 -250.687 814.032)" class="st1" cx="671.5" cy="652.4" rx="20.7" ry="29.7"/>
<ellipse transform="matrix(0.7071 -0.7071 0.7071 0.7071 83.2052 805.901)" class="st1" cx="1014.4" cy="302.5" rx="30.2" ry="20.7"/>
<path class="st1" d="M699.1,700.5c-15.4,2.7-30,10.5-43.4,18.4c-15.5,9.1-30.9,19.5-40.7,34.5c-9.9,15.2-13.1,33.7-14.5,51.8
	c-1.6,21.2-0.9,43.1,6.5,63.1c5.6,15.1,14.7,28.5,23.8,41.7c4.9,7.1,10.3,14.7,18.4,17.7c-3,4.9-8.8,7.1-13.5,10.2
	c-4.8,3.1-9.2,8.8-7.1,14.1c2,5.1,8.5,6.4,14,6.9c11.1,0.9,22.4,1.3,33.3-1.1c10.9-2.4,21.5-7.9,28.1-16.9c2.1-2.8,3.7-6,3.9-9.4
	c0.3-7.4-6.3-13-11.8-17.9c-33-29.4-46.7-78.7-33.5-120.9c3.8-12.2,10.1-24.3,20.6-31.5c15-10.2,34.9-8.6,52.7-5
	c17.8,3.6,36.2,8.7,53.7,4.1c11.3-3,21.9-9.9,33.5-9.1c11,0.8,20.3,8.4,27.6,16.7c14.6,16.5,24.9,37.4,25.9,59.4
	c0.9,19.8-5.4,39.1-11.7,57.8c-6.1,18.3-12.5,37.1-24.9,52c-1.9,2.3-4.1,5-3.3,7.8c0.7,2.6,3.5,4,5.9,4.9c14,5.5,28.7,9.3,43.6,11.2
	c11.1,1.4,23.1,1.7,32.5-4.3c4.3-2.7,8-6.9,9.1-11.9c1.1-5-0.7-10.8-5.1-13.5c-6.3-3.9-14.4-0.3-20.9,3.3
	c13.7-39.1,27.6-80,22.7-121.1c-1.3-11.2-4.1-22.2-5.7-33.3c-1.4-9.5-1.9-19.1-4.2-28.3c-4.6-18.5-16.8-35.6-34.2-43.5
	c-12.9-5.9-27.5-6.4-41.7-6.6c-41.1-0.5-82.4,1.6-123.4-2C709.7,699.2,704.3,699.6,699.1,700.5z"/>
<polygon class="st4" points="598.7,801.2 614.6,779.7 607.5,762.9 "/>
<polygon class="st4" points="916.4,766.1 910.1,792.2 923.2,804.9 "/>
<path class="st5" d="M602.6,852.8c0,0,26.3-22.9,57-4.4"/>
<path class="st5" d="M600.9,841.2c0,0,26.3-22.9,57-4.4"/>
<path class="st5" d="M599.8,824.8c0,0,26.3-22.9,57-4.4"/>
<path class="st5" d="M874.1,849.9c0,0,26.5-20,52.3,1.6"/>
<path class="st5" d="M873.9,838.1c0,0,26.5-20,52.3,1.6"/>
<path class="st5" d="M874.8,821.8c0,0,26.5-20,52.3,1.6"/>
<path class="st2" d="M593,693.2c5.1-8.9,2.9-19.9-5.1-24.4c-8-4.6-18.6-1.1-23.7,7.8c-1.9,3.2-2.7,6.7-2.7,10.1
	c2.8,3.8,5.9,7.3,9.4,10.4c2.5,2.2,5.2,4.1,8.1,5.8C584.5,702.2,589.8,698.7,593,693.2z"/>
<path class="st2" d="M630.4,954.8c0,0,67.7,0.2,71-10.8C701.3,943.9,677.2,970.3,630.4,954.8z"/>
<path class="st2" d="M926.2,948.9c0,0-73.5,7.3-88.4-1.8C837.8,947,908.1,980.1,926.2,948.9z"/>
<g>
	<defs>
		<circle id="SVGID_1_" cx="773.1" cy="407.9" r="98.1"/>
	</defs>
	<clipPath id="SVGID_2_">
		<use xlink:href="#SVGID_1_"  style="overflow:visible;"/>
	</clipPath>
	<ellipse class="st6" cx="769.9" cy="447.5" rx="124.7" ry="79.3"/>
</g>
<circle class="st7" cx="238.9" cy="349.8" r="7.5"/>
<circle class="st7" cx="424.5" cy="943.9" r="7.5"/>
<circle class="st7" cx="75" cy="94.5" r="7.5"/>
<circle class="st7" cx="837.8" cy="39.9" r="7.5"/>
<circle class="st7" cx="231.4" cy="785.5" r="7.5"/>
<circle class="st7" cx="78" cy="1098.1" r="7.5"/>
<circle class="st7" cx="606.7" cy="297.9" r="7.5"/>
<circle class="st7" cx="748.6" cy="839.7" r="7.5"/>
<circle class="st7" cx="1309.6" cy="102" r="7.5"/>
<circle class="st7" cx="424.5" cy="87" r="7.5"/>
<circle class="st7" cx="976.6" cy="416.8" r="7.5"/>
<circle class="st7" cx="1401.5" cy="1105.6" r="7.5"/>
<circle class="st7" cx="1252.9" cy="541" r="7.5"/>
<circle class="st7" cx="1065.6" cy="711.9" r="7.5"/>
<circle class="st7" cx="1386.5" cy="766.1" r="7.5"/>
<circle class="st7" cx="1233.1" cy="898.6" r="7.5"/>
<circle class="st7" cx="141" cy="126.2" r="252"/>
<ellipse transform="matrix(0.5861 -0.8102 0.8102 0.5861 -35.1339 216.9725)" class="st8" cx="194.8" cy="142.9" rx="48.4" ry="36.6"/>
<ellipse transform="matrix(0.7584 -0.6518 0.6518 0.7584 104.1474 171.9031)" class="st7" cx="284" cy="-54.5" rx="46.7" ry="59.7"/>
<ellipse transform="matrix(0.7584 -0.6518 0.6518 0.7584 -197.2715 63.5326)" class="st7" cx="-12.9" cy="297.9" rx="46.7" ry="59.7"/>
<ellipse transform="matrix(0.5861 -0.8102 0.8102 0.5861 -244.7433 116.6353)" class="st8" cx="-8.2" cy="297.9" rx="36.6" ry="48.4"/>
<ellipse transform="matrix(0.7584 -0.6518 0.6518 0.7584 -141.21 256.9707)" class="st7" cx="276" cy="319" rx="59.7" ry="46.7"/>
<ellipse transform="matrix(0.5861 -0.8102 0.8102 0.5861 -140.3631 353.7101)" class="st8" cx="276" cy="314.2" rx="48.4" ry="36.6"/>
<ellipse transform="matrix(0.5861 -0.8102 0.8102 0.5861 158.4346 201.0812)" class="st8" cx="276" cy="-54.5" rx="36.6" ry="48.4"/>
<path class="st8" d="M255.9,133.1c-0.1,13.7-5.8,30.1-16.7,45.1c-10.9,15.1-24.8,25.6-37.7,30c15.7,4.1,35.5-4.5,48.4-22.2
	C262.7,168.2,264.6,146.8,255.9,133.1z"/>
<ellipse transform="matrix(0.6088 -0.7934 0.7934 0.6088 67.6734 113.2315)" class="st8" cx="148.6" cy="-12" rx="48.4" ry="36.6"/>
<path class="st8" d="M87.3-4c0.5-13.7,6.6-29.9,17.9-44.7c11.3-14.8,25.5-24.9,38.5-28.9c-15.6-4.5-35.6,3.5-49,20.9
	C81.5-39.3,79-17.9,87.3-4z"/>
<circle class="st7" cx="1322.6" cy="974.9" r="4.1"/>
<circle class="st7" cx="1233.1" cy="835.5" r="4.1"/>
<circle class="st9" cx="1269.1" cy="852.8" r="137.6"/>
<ellipse transform="matrix(0.5861 -0.8102 0.8102 0.5861 -160.9109 1408.7872)" class="st10" cx="1298.5" cy="861.9" rx="26.4" ry="20"/>
<ellipse transform="matrix(0.7584 -0.6518 0.6518 0.7584 -166.0314 1060.2255)" class="st9" cx="1347.2" cy="754.1" rx="25.5" ry="32.6"/>
<ellipse transform="matrix(0.7584 -0.6518 0.6518 0.7584 -330.642 1001.0423)" class="st9" cx="1185.1" cy="946.6" rx="25.5" ry="32.6"/>
<ellipse transform="matrix(0.5861 -0.8102 0.8102 0.5861 -275.3826 1353.9912)" class="st10" cx="1187.6" cy="946.6" rx="20" ry="26.4"/>
<ellipse transform="matrix(0.7584 -0.6518 0.6518 0.7584 -300.0257 1106.6825)" class="st9" cx="1342.9" cy="958.1" rx="32.6" ry="25.5"/>
<ellipse transform="matrix(0.5861 -0.8102 0.8102 0.5861 -218.3786 1483.4623)" class="st10" cx="1342.9" cy="955.5" rx="26.4" ry="20"/>
<ellipse transform="matrix(0.5861 -0.8102 0.8102 0.5861 -55.1995 1400.1086)" class="st10" cx="1342.9" cy="754.1" rx="20" ry="26.4"/>
<path class="st10" d="M1331.9,856.6c-0.1,7.5-3.1,16.4-9.1,24.7c-6,8.2-13.5,14-20.6,16.4c8.6,2.2,19.4-2.4,26.4-12.1
	C1335.6,875.7,1336.6,864,1331.9,856.6z"/>
<ellipse transform="matrix(0.6088 -0.7934 0.7934 0.6088 -118.5237 1314.2958)" class="st10" cx="1273.3" cy="777.3" rx="26.4" ry="20"/>
<path class="st10" d="M1239.8,781.7c0.3-7.5,3.6-16.3,9.8-24.4c6.2-8.1,13.9-13.6,21.1-15.8c-8.5-2.5-19.5,1.9-26.7,11.4
	C1236.6,762.4,1235.3,774.1,1239.8,781.7z"/>
</svg>
